<svg width="201" height="63" viewBox="0 0 201 63" fill="none" xmlns="http://www.w3.org/2000/svg">
<path d="M7.4197 12.3525H12.0786L6.25498 46H1.72551L7.4197 12.3525ZM12.177 36.0783C12.4646 34.1227 13.126 32.3685 14.1613 30.8155C15.2254 29.2338 16.5483 27.9972 18.13 27.1056C19.7117 26.1854 21.4085 25.7252 23.2203 25.7252C24.802 25.7252 26.0961 26.1279 27.1027 26.9331C28.1092 27.7383 28.8426 28.7736 29.3027 30.039L29.9498 26.1566H34.5224L31.0713 46H26.6281L27.1889 42.6784C26.3262 43.8287 25.2765 44.749 24.0399 45.4392C22.832 46.1007 21.4948 46.4314 20.0281 46.4314C18.2163 46.4314 16.6777 45.9569 15.4123 45.0078C14.1469 44.0588 13.2267 42.8078 12.6515 41.2548C12.0763 39.6731 11.9182 37.9476 12.177 36.0783ZM16.9221 36.0783C16.7496 37.1999 16.8215 38.2352 17.1378 39.1842C17.4542 40.1333 17.9718 40.9097 18.6908 41.5137C19.4385 42.0888 20.3732 42.3764 21.4948 42.3764C22.5301 42.3764 23.5078 42.1032 24.4281 41.5568C25.3772 40.9816 26.1824 40.2195 26.8438 39.2705C27.534 38.3215 27.9654 37.2574 28.138 36.0783C28.2818 34.9567 28.1955 33.9358 27.8791 33.0155C27.5916 32.0665 27.1027 31.3044 26.4125 30.7292C25.751 30.1253 24.917 29.8089 23.9105 29.7802C22.7889 29.7514 21.7248 30.0246 20.7183 30.5998C19.7405 31.1462 18.9065 31.9083 18.2163 32.8861C17.5548 33.8351 17.1235 34.8992 16.9221 36.0783ZM39.4536 55.4903H34.7084L39.7987 26.1566H44.3713L43.8536 29.3488C44.6876 28.2272 45.6942 27.3357 46.8733 26.6743C48.0811 25.9841 49.4184 25.639 50.8851 25.639C52.7256 25.639 54.2642 26.1135 55.5008 27.0625C56.7662 28.0115 57.6721 29.2769 58.2185 30.8586C58.7937 32.4404 58.9518 34.1802 58.693 36.0783C58.4342 38.0626 57.7727 39.8457 56.7087 41.4274C55.6446 43.0091 54.3217 44.2601 52.74 45.1804C51.187 46.0719 49.4903 46.5177 47.6497 46.5177C46.068 46.5177 44.7883 46.1294 43.8105 45.3529C42.8327 44.5477 42.1137 43.5268 41.6536 42.2901L39.4536 55.4903ZM53.9479 36.0783C54.1204 34.9567 54.0485 33.9214 53.7322 32.9724C53.4446 32.0234 52.9269 31.2756 52.1792 30.7292C51.4315 30.1541 50.4968 29.8665 49.3752 29.8665C48.3687 29.8665 47.3909 30.1397 46.4419 30.6861C45.4928 31.2325 44.6732 31.9802 43.983 32.9292C43.3216 33.8495 42.9046 34.8992 42.732 36.0783C42.5882 37.1711 42.6601 38.1921 42.9477 39.1411C43.2641 40.0614 43.7673 40.8091 44.4575 41.3843C45.1477 41.9594 45.9817 42.2614 46.9595 42.2901C48.0811 42.3189 49.1308 42.0601 50.1086 41.5137C51.1151 40.9673 51.9635 40.2195 52.6537 39.2705C53.3439 38.3215 53.7753 37.2574 53.9479 36.0783ZM61.6399 36.0783C61.8987 34.1227 62.5889 32.3685 63.7105 30.8155C64.8608 29.2338 66.2844 27.9972 67.9811 27.1056C69.7066 26.1854 71.5616 25.7252 73.5459 25.7252C75.5302 25.7252 77.2414 26.1998 78.6793 27.1488C80.1172 28.0691 81.1813 29.3201 81.8715 30.9018C82.5617 32.4547 82.7774 34.1802 82.5186 36.0783C82.2597 38.0339 81.5551 39.8025 80.4048 41.3843C79.2832 42.9372 77.874 44.1738 76.1773 45.0941C74.4805 45.9856 72.6256 46.4314 70.6125 46.4314C68.6569 46.4314 66.9458 45.9712 65.4791 45.051C64.0412 44.1019 62.9771 42.8509 62.2869 41.298C61.5967 39.7163 61.381 37.9764 61.6399 36.0783ZM66.3419 36.0783C66.1981 37.1424 66.27 38.1489 66.5576 39.098C66.8739 40.047 67.4059 40.8235 68.1537 41.4274C68.9014 42.0026 69.836 42.2901 70.9576 42.2901C72.108 42.2901 73.1577 42.0169 74.1067 41.4705C75.0845 40.8954 75.8897 40.1333 76.5224 39.1842C77.1838 38.2352 77.6008 37.1999 77.7734 36.0783C77.9459 34.9855 77.874 33.9789 77.5577 33.0587C77.2414 32.1096 76.7093 31.3475 75.9616 30.7724C75.2139 30.1684 74.2792 29.8665 73.1577 29.8665C72.0361 29.8665 70.9864 30.1541 70.0086 30.7292C69.0308 31.2756 68.2112 32.0234 67.5497 32.9724C66.9171 33.8927 66.5144 34.928 66.3419 36.0783ZM97.6987 31.1606C97.3248 30.8443 96.951 30.5854 96.5771 30.3841C96.232 30.1828 95.815 30.0822 95.3261 30.0822C94.262 30.0534 93.3993 30.4129 92.7378 31.1606C92.1051 31.9083 91.645 32.7998 91.3574 33.8351L89.2437 46H84.6711L88.1221 26.1566H92.6947L92.3064 28.3998C92.9391 27.6233 93.6581 26.9906 94.4633 26.5017C95.2686 25.9841 96.117 25.7252 97.0085 25.7252C97.6987 25.7252 98.3314 25.869 98.9065 26.1566C99.4817 26.4154 99.9994 26.7893 100.459 27.2782L97.6987 31.1606ZM114.883 26.1566H120.749L110.741 34.6116L117.945 46H112.596L106.341 35.9058L104.616 46H100.13L105.824 12.3525H110.396L106.859 32.9292L114.883 26.1566ZM129.501 46.4314C126.826 46.4314 124.669 45.6405 123.03 44.0588C121.391 42.4483 120.571 40.2195 120.571 37.3724C120.571 35.2731 121.074 33.3462 122.081 31.592C123.088 29.8089 124.468 28.3854 126.222 27.3213C127.976 26.2573 129.975 25.7252 132.218 25.7252C134.922 25.7252 137.021 26.473 138.516 27.9684C140.012 29.4638 140.76 31.6207 140.76 34.4391C140.76 34.8992 140.702 35.3881 140.587 35.9058C140.501 36.4234 140.4 36.8404 140.285 37.1568H125.23C125.173 38.7672 125.532 40.0757 126.308 41.0823C127.114 42.0888 128.307 42.5921 129.889 42.5921C131.126 42.5921 132.233 42.3045 133.211 41.7294C134.188 41.1542 135.008 40.3921 135.669 39.4431L139.552 41.0392C138.516 42.6784 137.15 43.9869 135.454 44.9647C133.786 45.9425 131.801 46.4314 129.501 46.4314ZM131.83 29.2625C130.363 29.2625 129.112 29.6939 128.077 30.5567C127.042 31.4194 126.28 32.541 125.791 33.9214H135.971V33.8351C135.971 32.3972 135.626 31.2756 134.936 30.4704C134.246 29.6652 133.211 29.2625 131.83 29.2625ZM148.803 38.2352C148.659 39.3855 148.76 40.4065 149.105 41.298C149.45 42.1895 150.241 42.6353 151.478 42.6353C152.772 42.6353 153.893 42.247 154.842 41.4705C155.791 40.6653 156.367 39.6444 156.568 38.4077L158.725 26.1566H163.341L159.933 46H155.274L155.748 43.0666C155.029 44.1019 154.167 44.9216 153.16 45.5255C152.154 46.1294 150.974 46.4314 149.623 46.4314C148.127 46.4314 146.934 46.0863 146.042 45.3961C145.151 44.6771 144.547 43.7425 144.231 42.5921C143.914 41.4418 143.857 40.162 144.058 38.7529L146.215 26.1566H150.874L148.803 38.2352ZM180.135 33.9214C180.279 32.7423 180.178 31.7214 179.833 30.8586C179.488 29.9671 178.668 29.5214 177.374 29.5214C176.08 29.5214 174.958 29.924 174.009 30.7292C173.089 31.5345 172.528 32.5554 172.327 33.792L170.213 46H165.554L169.005 26.1566H173.621L173.147 29.09C173.866 28.0547 174.728 27.2351 175.735 26.6311C176.77 26.0272 177.949 25.7252 179.272 25.7252C180.796 25.7252 182.004 26.0703 182.896 26.7605C183.787 27.4507 184.391 28.3854 184.708 29.5645C185.024 30.7148 185.081 31.9946 184.88 33.4038L182.723 46H177.978L180.135 33.9214ZM194.471 15.8035H200.251L195.592 36.8548H191.969L194.471 15.8035ZM189.51 43.8862C189.51 43.0523 189.797 42.362 190.372 41.8156C190.976 41.2692 191.71 40.996 192.572 40.996C193.435 40.996 194.154 41.2692 194.729 41.8156C195.305 42.362 195.592 43.0523 195.592 43.8862C195.592 44.6915 195.305 45.3817 194.729 45.9569C194.154 46.532 193.435 46.8196 192.572 46.8196C191.71 46.8196 190.976 46.532 190.372 45.9569C189.797 45.3817 189.51 44.6915 189.51 43.8862Z" fill="#E3E3E3"/>
<path d="M22.3414 19.0838C21.8037 19.0838 21.3184 18.9651 20.8854 18.7277C20.4594 18.4833 20.1208 18.1411 19.8694 17.7012C19.625 17.2542 19.5028 16.734 19.5028 16.1405C19.5028 15.5469 19.6285 15.0302 19.8799 14.5902C20.1312 14.1433 20.4734 13.8012 20.9064 13.5637C21.3393 13.3193 21.8246 13.1971 22.3623 13.1971C22.9 13.1971 23.3853 13.3193 23.8183 13.5637C24.2582 13.8012 24.6004 14.1433 24.8448 14.5902C25.0962 15.0302 25.2219 15.5469 25.2219 16.1405C25.2219 16.727 25.0962 17.2438 24.8448 17.6907C24.5934 18.1376 24.2477 18.4833 23.8078 18.7277C23.3679 18.9651 22.8791 19.0838 22.3414 19.0838ZM22.3414 18.4449C22.7184 18.4449 23.0676 18.3611 23.3888 18.1935C23.71 18.0189 23.9684 17.7605 24.1639 17.4184C24.3664 17.0692 24.4677 16.6432 24.4677 16.1405C24.4677 15.6377 24.3699 15.2152 24.1744 14.873C23.9789 14.5239 23.7205 14.2655 23.3993 14.0979C23.0781 13.9234 22.7289 13.8361 22.3518 13.8361C21.9748 13.8361 21.6256 13.9234 21.3044 14.0979C20.9832 14.2655 20.7248 14.5239 20.5293 14.873C20.3407 15.2152 20.2465 15.6377 20.2465 16.1405C20.2465 16.6432 20.3407 17.0692 20.5293 17.4184C20.7248 17.7605 20.9797 18.0189 21.2939 18.1935C21.6151 18.3611 21.9643 18.4449 22.3414 18.4449ZM27.2916 11.2489V19H26.5584V11.2489H27.2916ZM34.1264 15.8472C34.1264 16.0986 34.1194 16.2906 34.1055 16.4233H29.3605C29.3815 16.8562 29.4862 17.2263 29.6747 17.5336C29.8633 17.8408 30.1112 18.0748 30.4184 18.2354C30.7257 18.389 31.0609 18.4658 31.424 18.4658C31.8988 18.4658 32.2969 18.3506 32.6181 18.1201C32.9463 17.8897 33.1628 17.579 33.2675 17.1879H34.0426C33.903 17.7466 33.6027 18.2039 33.1418 18.5601C32.6879 18.9092 32.1153 19.0838 31.424 19.0838C30.8863 19.0838 30.4045 18.9651 29.9785 18.7277C29.5525 18.4833 29.2174 18.1411 28.973 17.7012C28.7355 17.2542 28.6168 16.734 28.6168 16.1405C28.6168 15.5469 28.7355 15.0267 28.973 14.5798C29.2104 14.1328 29.5421 13.7907 29.968 13.5533C30.394 13.3158 30.8793 13.1971 31.424 13.1971C31.9687 13.1971 32.4435 13.3158 32.8485 13.5533C33.2605 13.7907 33.5748 14.1119 33.7912 14.5169C34.0147 14.9149 34.1264 15.3584 34.1264 15.8472ZM33.3827 15.8262C33.3897 15.4003 33.3024 15.0371 33.1209 14.7369C32.9463 14.4366 32.7054 14.2097 32.3981 14.056C32.0909 13.9024 31.7557 13.8256 31.3926 13.8256C30.8479 13.8256 30.3835 14.0002 29.9995 14.3493C29.6154 14.6985 29.4024 15.1908 29.3605 15.8262H33.3827ZM38.1913 13.1762C38.6242 13.1762 39.0118 13.267 39.3539 13.4485C39.7031 13.6301 39.9754 13.9094 40.1709 14.2865C40.3734 14.6566 40.4747 15.1105 40.4747 15.6482V19H39.752V15.732C39.752 15.1105 39.5948 14.6356 39.2806 14.3074C38.9733 13.9792 38.5509 13.8151 38.0132 13.8151C37.4615 13.8151 37.0216 13.9897 36.6934 14.3388C36.3652 14.688 36.2011 15.2012 36.2011 15.8786V19H35.4679V11.2489H36.2011V14.2551C36.3827 13.9129 36.648 13.6475 36.9972 13.459C37.3533 13.2704 37.7513 13.1762 38.1913 13.1762ZM42.222 19.0524C42.0683 19.0524 41.9392 19 41.8344 18.8953C41.7367 18.7905 41.6878 18.6613 41.6878 18.5077C41.6878 18.3541 41.7367 18.2284 41.8344 18.1306C41.9392 18.0259 42.0683 17.9735 42.222 17.9735C42.3686 17.9735 42.4908 18.0259 42.5886 18.1306C42.6933 18.2284 42.7457 18.3541 42.7457 18.5077C42.7457 18.6613 42.6933 18.7905 42.5886 18.8953C42.4908 19 42.3686 19.0524 42.222 19.0524ZM42.222 14.496C42.0683 14.496 41.9392 14.4436 41.8344 14.3388C41.7367 14.2341 41.6878 14.1049 41.6878 13.9513C41.6878 13.7977 41.7367 13.672 41.8344 13.5742C41.9392 13.4695 42.0683 13.4171 42.222 13.4171C42.3686 13.4171 42.4908 13.4695 42.5886 13.5742C42.6933 13.672 42.7457 13.7977 42.7457 13.9513C42.7457 14.1049 42.6933 14.2341 42.5886 14.3388C42.4908 14.4436 42.3686 14.496 42.222 14.496ZM51.6174 13.2809L48.2237 21.6919H47.4591L48.5694 18.9686L46.2231 13.2809H47.0296L48.9779 18.162L50.8633 13.2809H51.6174ZM57.5661 13.2809V19H56.8329V17.9944C56.6653 18.3506 56.407 18.6229 56.0578 18.8115C55.7087 19 55.3176 19.0943 54.8847 19.0943C54.2003 19.0943 53.6417 18.8848 53.2087 18.4658C52.7758 18.0398 52.5593 17.4253 52.5593 16.6223V13.2809H53.2821V16.5385C53.2821 17.16 53.4357 17.6348 53.7429 17.963C54.0572 18.2912 54.4831 18.4553 55.0208 18.4553C55.5725 18.4553 56.0124 18.2808 56.3406 17.9316C56.6688 17.5825 56.8329 17.0692 56.8329 16.3918V13.2809H57.5661ZM61.2093 19.0838C60.5529 19.0838 60.0152 18.9337 59.5962 18.6334C59.1842 18.3261 58.9538 17.9107 58.9049 17.3869H59.6591C59.694 17.7081 59.8441 17.97 60.1095 18.1725C60.3818 18.368 60.7449 18.4658 61.1988 18.4658C61.5969 18.4658 61.9076 18.3715 62.1311 18.183C62.3615 17.9944 62.4767 17.7605 62.4767 17.4812C62.4767 17.2857 62.4139 17.1251 62.2882 16.9994C62.1625 16.8737 62.0019 16.7759 61.8063 16.7061C61.6178 16.6293 61.3594 16.549 61.0312 16.4652C60.6053 16.3534 60.2596 16.2417 59.9943 16.13C59.7289 16.0183 59.502 15.8542 59.3134 15.6377C59.1319 15.4142 59.0411 15.1175 59.0411 14.7474C59.0411 14.468 59.1249 14.2097 59.2925 13.9722C59.4601 13.7348 59.6975 13.5463 60.0047 13.4066C60.312 13.267 60.6611 13.1971 61.0522 13.1971C61.6667 13.1971 62.1625 13.3542 62.5396 13.6685C62.9166 13.9757 63.1191 14.4017 63.1471 14.9464H62.4139C62.3929 14.6112 62.2602 14.3423 62.0158 14.1398C61.7784 13.9303 61.4502 13.8256 61.0312 13.8256C60.6611 13.8256 60.3609 13.9129 60.1304 14.0875C59.9 14.262 59.7848 14.4785 59.7848 14.7369C59.7848 14.9603 59.8511 15.1454 59.9838 15.292C60.1234 15.4317 60.2945 15.5434 60.497 15.6272C60.6995 15.704 60.9719 15.7913 61.314 15.8891C61.726 16.0008 62.0542 16.109 62.2986 16.2138C62.543 16.3185 62.7525 16.4722 62.9271 16.6747C63.1017 16.8772 63.1925 17.146 63.1995 17.4812C63.1995 17.7884 63.1157 18.0643 62.9481 18.3087C62.7805 18.5461 62.5465 18.7346 62.2463 18.8743C61.946 19.014 61.6003 19.0838 61.2093 19.0838ZM65.3128 14.2969C65.4735 13.9408 65.7179 13.665 66.0461 13.4695C66.3812 13.2739 66.7897 13.1762 67.2716 13.1762V13.9408H67.0726C66.5419 13.9408 66.1159 14.084 65.7947 14.3703C65.4735 14.6566 65.3128 15.1349 65.3128 15.8053V19H64.5796V13.2809H65.3128V14.2969ZM68.5003 19.0524C68.3467 19.0524 68.2175 19 68.1127 18.8953C68.015 18.7905 67.9661 18.6613 67.9661 18.5077C67.9661 18.3541 68.015 18.2284 68.1127 18.1306C68.2175 18.0259 68.3467 17.9735 68.5003 17.9735C68.6469 17.9735 68.7691 18.0259 68.8669 18.1306C68.9716 18.2284 69.024 18.3541 69.024 18.5077C69.024 18.6613 68.9716 18.7905 68.8669 18.8953C68.7691 19 68.6469 19.0524 68.5003 19.0524ZM69.942 16.13C69.942 15.5434 70.0607 15.0302 70.2981 14.5902C70.5356 14.1433 70.8603 13.8012 71.2723 13.5637C71.6912 13.3193 72.1626 13.1971 72.6863 13.1971C73.1891 13.1971 73.643 13.3193 74.048 13.5637C74.453 13.8081 74.7498 14.1259 74.9383 14.5169V11.2489H75.6716V19H74.9383V17.7221C74.7638 18.1201 74.4775 18.4483 74.0794 18.7067C73.6814 18.9581 73.2135 19.0838 72.6758 19.0838C72.1521 19.0838 71.6808 18.9616 71.2618 18.7172C70.8498 18.4728 70.5251 18.1271 70.2877 17.6802C70.0572 17.2333 69.942 16.7166 69.942 16.13ZM74.9383 16.1405C74.9383 15.6796 74.8441 15.2746 74.6555 14.9254C74.467 14.5763 74.2086 14.3074 73.8804 14.1189C73.5592 13.9303 73.2031 13.8361 72.812 13.8361C72.407 13.8361 72.0439 13.9268 71.7227 14.1084C71.4014 14.29 71.1466 14.5553 70.958 14.9045C70.7765 15.2466 70.6857 15.6551 70.6857 16.13C70.6857 16.5978 70.7765 17.0098 70.958 17.366C71.1466 17.7151 71.4014 17.984 71.7227 18.1725C72.0439 18.3541 72.407 18.4449 72.812 18.4449C73.2031 18.4449 73.5592 18.3506 73.8804 18.162C74.2086 17.9735 74.467 17.7047 74.6555 17.3555C74.8441 17.0064 74.9383 16.6013 74.9383 16.1405ZM80.0688 13.1762C80.5017 13.1762 80.8893 13.267 81.2315 13.4485C81.5806 13.6301 81.853 13.9094 82.0485 14.2865C82.251 14.6566 82.3522 15.1105 82.3522 15.6482V19H81.6295V15.732C81.6295 15.1105 81.4724 14.6356 81.1581 14.3074C80.8509 13.9792 80.4284 13.8151 79.8907 13.8151C79.3391 13.8151 78.8991 13.9897 78.5709 14.3388C78.2427 14.688 78.0786 15.2012 78.0786 15.8786V19H77.3454V11.2489H78.0786V14.2551C78.2602 13.9129 78.5256 13.6475 78.8747 13.459C79.2308 13.2704 79.6289 13.1762 80.0688 13.1762ZM90.7823 13.1762C91.4526 13.1762 91.9973 13.3892 92.4163 13.8151C92.8422 14.2341 93.0552 14.8451 93.0552 15.6482V19H92.3325V15.732C92.3325 15.1105 92.1823 14.6356 91.8821 14.3074C91.5818 13.9792 91.1733 13.8151 90.6566 13.8151C90.1189 13.8151 89.6894 13.9932 89.3682 14.3493C89.047 14.7055 88.8864 15.2222 88.8864 15.8995V19H88.1636V15.732C88.1636 15.1105 88.0135 14.6356 87.7132 14.3074C87.413 13.9792 87.001 13.8151 86.4772 13.8151C85.9395 13.8151 85.5101 13.9932 85.1889 14.3493C84.8676 14.7055 84.707 15.2222 84.707 15.8995V19H83.9738V13.2809H84.707V14.2655C84.8886 13.9094 85.147 13.6405 85.4822 13.459C85.8173 13.2704 86.1909 13.1762 86.6029 13.1762C87.0987 13.1762 87.5317 13.2949 87.9018 13.5323C88.2788 13.7697 88.5512 14.1189 88.7188 14.5798C88.8724 14.1259 89.1343 13.7802 89.5044 13.5428C89.8814 13.2984 90.3074 13.1762 90.7823 13.1762Z" fill="#E3E3E3"/>
</svg>
