<svg width="201" height="63" fill="none" xmlns="http://www.w3.org/2000/svg"><path d="M7.4197 12.3525h4.6589L6.25498 46H1.72551L7.4197 12.3525zm4.7573 23.7258c.2876-1.9556.949-3.7098 1.9843-5.2628 1.0641-1.5817 2.387-2.8183 3.9687-3.7099 1.5817-.9202 3.2785-1.3804 5.0903-1.3804 1.5817 0 2.8758.4027 3.8824 1.2079 1.0065.8052 1.7399 1.8405 2.2 3.1059l.6471-3.8824h4.5726L31.0713 46h-4.4432l.5608-3.3216c-.8627 1.1503-1.9124 2.0706-3.149 2.7608-1.2079.6615-2.5451.9922-4.0118.9922-1.8118 0-3.3504-.4745-4.6158-1.4236-1.2654-.949-2.1856-2.2-2.7608-3.753-.5752-1.5817-.7333-3.3072-.4745-5.1765zm4.7451 0c-.1725 1.1216-.1006 2.1569.2157 3.1059.3164.9491.834 1.7255 1.553 2.3295.7477.5751 1.6824.8627 2.804.8627 1.0353 0 2.013-.2732 2.9333-.8196.9491-.5752 1.7543-1.3373 2.4157-2.2863.6902-.949 1.1216-2.0131 1.2942-3.1922.1438-1.1216.0575-2.1425-.2589-3.0628-.2875-.949-.7764-1.7111-1.4666-2.2863-.6615-.6039-1.4955-.9203-2.502-.949-1.1216-.0288-2.1857.2444-3.1922.8196-.9778.5464-1.8118 1.3085-2.502 2.2863-.6615.949-1.0928 2.0131-1.2942 3.1922zm22.5315 19.412h-4.7452l5.0903-29.3337h4.5726l-.5177 3.1922c.834-1.1216 1.8406-2.0131 3.0197-2.6745 1.2078-.6902 2.5451-1.0353 4.0118-1.0353 1.8405 0 3.3791.4745 4.6157 1.4235 1.2654.949 2.1713 2.2144 2.7177 3.7961.5752 1.5818.7333 3.3216.4745 5.2197-.2588 1.9843-.9203 3.7674-1.9843 5.3491-1.0641 1.5817-2.387 2.8327-3.9687 3.753-1.553.8915-3.2497 1.3373-5.0903 1.3373-1.5817 0-2.8614-.3883-3.8392-1.1648-.9778-.8052-1.6968-1.8261-2.1569-3.0628l-2.2 13.2002zm14.4943-19.412c.1725-1.1216.1006-2.1569-.2157-3.1059-.2876-.949-.8053-1.6968-1.553-2.2432-.7477-.5751-1.6824-.8627-2.804-.8627-1.0065 0-1.9843.2732-2.9333.8196-.9491.5464-1.7687 1.2941-2.4589 2.2431-.6614.9203-1.0784 1.97-1.251 3.1491-.1438 1.0928-.0719 2.1138.2157 3.0628.3164.9203.8196 1.668 1.5098 2.2432.6902.5751 1.5242.8771 2.502.9058 1.1216.0288 2.1713-.23 3.1491-.7764 1.0065-.5464 1.8549-1.2942 2.5451-2.2432.6902-.949 1.1216-2.0131 1.2942-3.1922zm7.692 0c.2588-1.9556.949-3.7098 2.0706-5.2628 1.1503-1.5817 2.5739-2.8183 4.2706-3.7099 1.7255-.9202 3.5805-1.3804 5.5648-1.3804 1.9843 0 3.6955.4746 5.1334 1.4236 1.4379.9203 2.502 2.1713 3.1922 3.753.6902 1.5529.9059 3.2784.6471 5.1765-.2589 1.9556-.9635 3.7242-2.1138 5.306-1.1216 1.5529-2.5308 2.7895-4.2275 3.7098-1.6968.8915-3.5517 1.3373-5.5648 1.3373-1.9556 0-3.6667-.4602-5.1334-1.3804-1.4379-.9491-2.502-2.2001-3.1922-3.753-.6902-1.5817-.9059-3.3216-.647-5.2197zm4.702 0c-.1438 1.0641-.0719 2.0706.2157 3.0197.3163.949.8483 1.7255 1.5961 2.3294.7477.5752 1.6823.8627 2.8039.8627 1.1504 0 2.2001-.2732 3.1491-.8196.9778-.5751 1.783-1.3372 2.4157-2.2863.6614-.949 1.0784-1.9843 1.251-3.1059.1725-1.0928.1006-2.0994-.2157-3.0196-.3163-.9491-.8484-1.7112-1.5961-2.2863-.7477-.604-1.6824-.9059-2.8039-.9059-1.1216 0-2.1713.2876-3.1491.8627-.9778.5464-1.7974 1.2942-2.4589 2.2432-.6326.9203-1.0353 1.9556-1.2078 3.1059zm31.3568-4.9177c-.3739-.3163-.7477-.5752-1.1216-.7765-.3451-.2013-.7621-.3019-1.251-.3019-1.0641-.0288-1.9268.3307-2.5883 1.0784-.6327.7477-1.0928 1.6392-1.3804 2.6745L89.2437 46h-4.5726l3.451-19.8434h4.5726l-.3883 2.2432c.6327-.7765 1.3517-1.4092 2.1569-1.8981.8053-.5176 1.6537-.7765 2.5452-.7765.6902 0 1.3229.1438 1.898.4314.5752.2588 1.0929.6327 1.5525 1.1216l-2.7603 3.8824zm17.1843-5.004h5.866l-10.008 8.455L117.945 46h-5.349l-6.255-10.0942L104.616 46h-4.486l5.694-33.6475h4.572l-3.537 20.5767 8.024-6.7726zm14.618 20.2748c-2.675 0-4.832-.7909-6.471-2.3726-1.639-1.6105-2.459-3.8393-2.459-6.6864 0-2.0993.503-4.0262 1.51-5.7804 1.007-1.7831 2.387-3.2066 4.141-4.2707 1.754-1.064 3.753-1.5961 5.996-1.5961 2.704 0 4.803.7478 6.298 2.2432 1.496 1.4954 2.244 3.6523 2.244 6.4707 0 .4601-.058.949-.173 1.4667-.086.5176-.187.9346-.302 1.251H125.23c-.057 1.6104.302 2.9189 1.078 3.9255.806 1.0065 1.999 1.5098 3.581 1.5098 1.237 0 2.344-.2876 3.322-.8627.977-.5752 1.797-1.3373 2.458-2.2863l3.883 1.5961c-1.036 1.6392-2.402 2.9477-4.098 3.9255-1.668.9778-3.653 1.4667-5.953 1.4667zm2.329-17.1689c-1.467 0-2.718.4314-3.753 1.2942-1.035.8627-1.797 1.9843-2.286 3.3647h10.18v-.0863c0-1.4379-.345-2.5595-1.035-3.3647-.69-.8052-1.725-1.2079-3.106-1.2079zm16.973 8.9727c-.144 1.1503-.043 2.1713.302 3.0628.345.8915 1.136 1.3373 2.373 1.3373 1.294 0 2.415-.3883 3.364-1.1648.949-.8052 1.525-1.8261 1.726-3.0628l2.157-12.2511h4.616L159.933 46h-4.659l.474-2.9334c-.719 1.0353-1.581 1.855-2.588 2.4589-1.006.6039-2.186.9059-3.537.9059-1.496 0-2.689-.3451-3.581-1.0353-.891-.719-1.495-1.6536-1.811-2.804-.317-1.1503-.374-2.4301-.173-3.8392l2.157-12.5963h4.659l-2.071 12.0786zm31.332-4.3138c.144-1.1791.043-2.2-.302-3.0628-.345-.8915-1.165-1.3372-2.459-1.3372s-2.416.4026-3.365 1.2078c-.92.8053-1.481 1.8262-1.682 3.0628L170.213 46h-4.659l3.451-19.8434h4.616l-.474 2.9334c.719-1.0353 1.581-1.8549 2.588-2.4589 1.035-.6039 2.214-.9059 3.537-.9059 1.524 0 2.732.3451 3.624 1.0353.891.6902 1.495 1.6249 1.812 2.804.316 1.1503.373 2.4301.172 3.8393L182.723 46h-4.745l2.157-12.0786zm14.336-18.1179h5.78l-4.659 21.0513h-3.623l2.502-21.0513zm-4.961 28.0827c0-.8339.287-1.5242.862-2.0706.604-.5464 1.338-.8196 2.2-.8196.863 0 1.582.2732 2.157.8196.576.5464.863 1.2367.863 2.0706 0 .8053-.287 1.4955-.863 2.0707-.575.5751-1.294.8627-2.157.8627-.862 0-1.596-.2876-2.2-.8627-.575-.5752-.862-1.2654-.862-2.0707zM22.3414 19.0838c-.5377 0-1.023-.1187-1.456-.3561-.426-.2444-.7646-.5866-1.016-1.0265-.2444-.447-.3666-.9672-.3666-1.5607 0-.5936.1257-1.1103.3771-1.5503.2513-.4469.5935-.789 1.0265-1.0265.4329-.2444.9182-.3666 1.4559-.3666s1.023.1222 1.456.3666c.4399.2375.7821.5796 1.0265 1.0265.2514.44.3771.9567.3771 1.5503 0 .5865-.1257 1.1033-.3771 1.5502-.2514.4469-.5971.7926-1.037 1.037-.4399.2374-.9287.3561-1.4664.3561zm0-.6389c.377 0 .7262-.0838 1.0474-.2514.3212-.1746.5796-.433.7751-.7751.2025-.3492.3038-.7752.3038-1.2779 0-.5028-.0978-.9253-.2933-1.2675-.1955-.3491-.4539-.6075-.7751-.7751-.3212-.1745-.6704-.2618-1.0475-.2618-.377 0-.7262.0873-1.0474.2618-.3212.1676-.5796.426-.7751.7751-.1886.3422-.2828.7647-.2828 1.2675 0 .5027.0942.9287.2828 1.2779.1955.3421.4504.6005.7646.7751.3212.1676.6704.2514 1.0475.2514zm4.9502-7.196V19h-.7332v-7.7511h.7332zm6.8348 4.5983c0 .2514-.007.4434-.0209.5761h-4.745c.021.4329.1257.803.3142 1.1103.1886.3072.4365.5412.7437.7018.3073.1536.6425.2304 1.0056.2304.4748 0 .8729-.1152 1.1941-.3457.3282-.2304.5447-.5411.6494-.9322h.7751c-.1396.5587-.4399 1.016-.9008 1.3722-.4539.3491-1.0265.5237-1.7178.5237-.5377 0-1.0195-.1187-1.4455-.3561-.426-.2444-.7611-.5866-1.0055-1.0265-.2375-.447-.3562-.9672-.3562-1.5607 0-.5936.1187-1.1138.3562-1.5607.2374-.447.5691-.7891.995-1.0265.426-.2375.9113-.3562 1.456-.3562s1.0195.1187 1.4245.3562c.412.2374.7263.5586.9427.9636.2235.398.3352.8415.3352 1.3303zm-.7437-.021c.007-.4259-.0803-.7891-.2618-1.0893-.1746-.3003-.4155-.5272-.7228-.6809-.3072-.1536-.6424-.2304-1.0055-.2304-.5447 0-1.0091.1746-1.3931.5237-.3841.3492-.5971.8415-.639 1.4769h4.0222zm4.8086-2.65c.4329 0 .8205.0908 1.1626.2723.3492.1816.6215.4609.817.838.2025.3701.3038.824.3038 1.3617V19h-.7227v-3.268c0-.6215-.1572-1.0964-.4714-1.4246-.3073-.3282-.7297-.4923-1.2674-.4923-.5517 0-.9916.1746-1.3198.5237-.3282.3492-.4923.8624-.4923 1.5398V19h-.7332v-7.7511h.7332v3.0062c.1816-.3422.4469-.6076.7961-.7961.3561-.1886.7541-.2828 1.1941-.2828zm4.0307 5.8762c-.1537 0-.2828-.0524-.3876-.1571-.0977-.1048-.1466-.234-.1466-.3876s.0489-.2793.1466-.3771c.1048-.1047.2339-.1571.3876-.1571.1466 0 .2688.0524.3666.1571.1047.0978.1571.2235.1571.3771s-.0524.2828-.1571.3876c-.0978.1047-.22.1571-.3666.1571zm0-4.5564c-.1537 0-.2828-.0524-.3876-.1572-.0977-.1047-.1466-.2339-.1466-.3875 0-.1536.0489-.2793.1466-.3771.1048-.1047.2339-.1571.3876-.1571.1466 0 .2688.0524.3666.1571.1047.0978.1571.2235.1571.3771s-.0524.2828-.1571.3875c-.0978.1048-.22.1572-.3666.1572zm9.3954-1.2151l-3.3937 8.411h-.7646l1.1103-2.7233-2.3463-5.6877h.8065l1.9483 4.8811 1.8854-4.8811h.7541zm5.9487 0V19h-.7332v-1.0056c-.1676.3562-.4259.6285-.7751.8171-.3491.1885-.7402.2828-1.1731.2828-.6844 0-1.243-.2095-1.676-.6285-.4329-.426-.6494-1.0405-.6494-1.8435v-3.3414h.7228v3.2576c0 .6215.1536 1.0963.4608 1.4245.3143.3282.7402.4923 1.2779.4923.5517 0 .9916-.1745 1.3198-.5237.3282-.3491.4923-.8624.4923-1.5398v-3.1109h.7332zm3.6432 5.8029c-.6564 0-1.1941-.1501-1.6131-.4504-.412-.3073-.6424-.7227-.6913-1.2465h.7542c.0349.3212.185.5831.4504.7856.2723.1955.6354.2933 1.0893.2933.3981 0 .7088-.0943.9323-.2828.2304-.1886.3456-.4225.3456-.7018 0-.1955-.0628-.3561-.1885-.4818-.1257-.1257-.2863-.2235-.4819-.2933-.1885-.0768-.4469-.1571-.7751-.2409-.4259-.1118-.7716-.2235-1.0369-.3352-.2654-.1117-.4923-.2758-.6809-.4923-.1815-.2235-.2723-.5202-.2723-.8903 0-.2794.0838-.5377.2514-.7752.1676-.2374.405-.4259.7122-.5656.3073-.1396.6564-.2095 1.0475-.2095.6145 0 1.1103.1571 1.4874.4714.377.3072.5795.7332.6075 1.2779h-.7332c-.021-.3352-.1537-.6041-.3981-.8066-.2374-.2095-.5656-.3142-.9846-.3142-.3701 0-.6703.0873-.9008.2619-.2304.1745-.3456.391-.3456.6494 0 .2234.0663.4085.199.5551.1396.1397.3107.2514.5132.3352.2025.0768.4749.1641.817.2619.412.1117.7402.2199.9846.3247.2444.1047.4539.2584.6285.4609.1746.2025.2654.4713.2724.8065 0 .3072-.0838.5831-.2514.8275-.1676.2374-.4016.4259-.7018.5656-.3003.1397-.646.2095-1.037.2095zm4.1035-4.7869c.1607-.3561.4051-.6319.7333-.8274.3351-.1956.7436-.2933 1.2255-.2933v.7646h-.199c-.5307 0-.9567.1432-1.2779.4295-.3212.2863-.4819.7646-.4819 1.435V19h-.7332v-5.7191h.7332v1.016zm3.1875 4.7555c-.1536 0-.2828-.0524-.3876-.1571-.0977-.1048-.1466-.234-.1466-.3876s.0489-.2793.1466-.3771c.1048-.1047.234-.1571.3876-.1571.1466 0 .2688.0524.3666.1571.1047.0978.1571.2235.1571.3771s-.0524.2828-.1571.3876c-.0978.1047-.22.1571-.3666.1571zM69.942 16.13c0-.5866.1187-1.0998.3561-1.5398.2375-.4469.5622-.789.9742-1.0265.4189-.2444.8903-.3666 1.414-.3666.5028 0 .9567.1222 1.3617.3666.405.2444.7018.5622.8903.9532v-3.268h.7333V19h-.7333v-1.2779c-.1745.398-.4608.7262-.8589.9846-.398.2514-.8659.3771-1.4036.3771-.5237 0-.995-.1222-1.414-.3666-.412-.2444-.7367-.5901-.9741-1.037-.2305-.4469-.3457-.9636-.3457-1.5502zm4.9963.0105c0-.4609-.0942-.8659-.2828-1.2151-.1885-.3491-.4469-.618-.7751-.8065-.3212-.1886-.6773-.2828-1.0684-.2828-.405 0-.7681.0907-1.0893.2723-.3213.1816-.5761.4469-.7647.7961-.1815.3421-.2723.7506-.2723 1.2255 0 .4678.0908.8798.2723 1.236.1886.3491.4434.618.7647.8065.3212.1816.6843.2724 1.0893.2724.3911 0 .7472-.0943 1.0684-.2829.3282-.1885.5866-.4573.7751-.8065.1886-.3491.2828-.7542.2828-1.215zm5.1305-2.9643c.4329 0 .8205.0908 1.1627.2723.3491.1816.6215.4609.817.838.2025.3701.3037.824.3037 1.3617V19h-.7227v-3.268c0-.6215-.1571-1.0964-.4714-1.4246-.3072-.3282-.7297-.4923-1.2674-.4923-.5516 0-.9916.1746-1.3198.5237-.3282.3492-.4923.8624-.4923 1.5398V19h-.7332v-7.7511h.7332v3.0062c.1816-.3422.447-.6076.7961-.7961.3561-.1886.7542-.2828 1.1941-.2828zm10.7135 0c.6703 0 1.215.213 1.634.6389.4259.419.6389 1.03.6389 1.8331V19h-.7227v-3.268c0-.6215-.1502-1.0964-.4504-1.4246-.3003-.3282-.7088-.4923-1.2255-.4923-.5377 0-.9672.1781-1.2884.5342-.3212.3562-.4818.8729-.4818 1.5502V19h-.7228v-3.268c0-.6215-.1501-1.0964-.4504-1.4246-.3002-.3282-.7122-.4923-1.236-.4923-.5377 0-.9671.1781-1.2883.5342-.3213.3562-.4819.8729-.4819 1.5502V19h-.7332v-5.7191h.7332v.9846c.1816-.3561.44-.625.7752-.8065.3351-.1886.7087-.2828 1.1207-.2828.4958 0 .9288.1187 1.2989.3561.377.2374.6494.5866.817 1.0475.1536-.4539.4155-.7996.7856-1.037.377-.2444.803-.3666 1.2779-.3666z" fill="#E3E3E3"/></svg>