<svg width="33" height="33" fill="none" xmlns="http://www.w3.org/2000/svg"><path d="M22.6875 12.375c0 1.641-.6519 3.2148-1.8123 4.3752-1.1604 1.1604-2.7342 1.8123-4.3752 1.8123-1.641 0-3.2148-.6519-4.3752-1.8123-1.1604-1.1604-1.8123-2.7342-1.8123-4.3752 0-1.641.6519-3.21484 1.8123-4.37522C13.2852 6.8394 14.859 6.1875 16.5 6.1875c1.641 0 3.2148.6519 4.3752 1.81228 1.1604 1.16038 1.8123 2.73422 1.8123 4.37522z" fill="#868686"/><path fill-rule="evenodd" clip-rule="evenodd" d="M0 16.5c0-4.3761 1.73839-8.57291 4.83274-11.66726C7.92709 1.73839 12.1239 0 16.5 0c4.3761 0 8.5729 1.73839 11.6673 4.83274C31.2616 7.92709 33 12.1239 33 16.5c0 4.3761-1.7384 8.5729-4.8327 11.6673C25.0729 31.2616 20.8761 33 16.5 33c-4.3761 0-8.57291-1.7384-11.66726-4.8327C1.73839 25.0729 0 20.8761 0 16.5zM16.5 2.0625c-2.7188.00014-5.3824.768-7.68404 2.21518-2.30168 1.44719-4.14794 3.51488-5.32628 5.96512-1.17835 2.4502-1.64088 5.1833-1.33437 7.8848.30651 2.7015 1.36961 5.2616 3.06694 7.3855C6.68663 23.1536 9.91031 20.625 16.5 20.625c6.5897 0 9.8113 2.5266 11.2778 4.8881 1.6973-2.1239 2.7604-4.684 3.0669-7.3855.3065-2.7015-.156-5.4346-1.3344-7.8848-1.1783-2.45024-3.0246-4.51793-5.3263-5.96512C21.8824 2.8305 19.2188 2.06264 16.5 2.0625z" fill="#868686"/></svg>