<svg width="200" height="87" viewBox="0 0 200 87" fill="none" xmlns="http://www.w3.org/2000/svg">
<path d="M19.3788 77.239H12.7593L19.8602 36.3185H26.239L25.5169 40.7716C26.6803 39.207 28.0844 37.9633 29.7293 37.0406C31.4142 36.0778 33.2797 35.5964 35.3257 35.5964C37.8933 35.5964 40.0396 36.2583 41.7647 37.5822C43.5299 38.9061 44.7936 40.6713 45.5559 42.8778C46.3582 45.0843 46.5789 47.5114 46.2178 50.1592C45.8568 52.9274 44.934 55.4147 43.4497 57.6212C41.9653 59.8277 40.1199 61.5729 37.9134 62.8566C35.747 64.1003 33.38 64.7221 30.8125 64.7221C28.606 64.7221 26.8207 64.1805 25.4567 63.0973C24.0927 61.974 23.0897 60.5498 22.4478 58.8248L19.3788 77.239ZM39.5983 50.1592C39.839 48.5946 39.7387 47.1504 39.2974 45.8265C38.8963 44.5026 38.1741 43.4595 37.1311 42.6973C36.088 41.8949 34.7842 41.4937 33.2195 41.4937C31.8154 41.4937 30.4514 41.8748 29.1275 42.6371C27.8036 43.3993 26.6602 44.4424 25.6974 45.7663C24.7747 47.0501 24.193 48.5144 23.9523 50.1592C23.7517 51.6837 23.852 53.1079 24.2531 54.4318C24.6944 55.7156 25.3965 56.7587 26.3593 57.561C27.3222 58.3634 28.4856 58.7846 29.8496 58.8248C31.4142 58.8649 32.8785 58.5038 34.2426 57.7416C35.6467 56.9793 36.8302 55.9363 37.793 54.6124C38.7559 53.2885 39.3576 51.8041 39.5983 50.1592ZM58.1517 21.8759H66.2155L59.7163 51.2424H54.6614L58.1517 21.8759ZM51.2313 61.0513C51.2313 59.8879 51.6325 58.9251 52.4349 58.1628C53.2774 57.4006 54.3004 57.0194 55.5039 57.0194C56.7075 57.0194 57.7104 57.4006 58.5128 58.1628C59.3151 58.9251 59.7163 59.8879 59.7163 61.0513C59.7163 62.1746 59.3151 63.1375 58.5128 63.9398C57.7104 64.7422 56.7075 65.1434 55.5039 65.1434C54.3004 65.1434 53.2774 64.7422 52.4349 63.9398C51.6325 63.1375 51.2313 62.1746 51.2313 61.0513Z" fill="#E3E3E3"/>
<circle cx="39" cy="48" r="36" stroke="#E3E3E3" stroke-width="6"/>
<path d="M85.7834 40.3799C85.7834 39.389 85.9843 38.5319 86.386 37.8088C86.7878 37.0856 87.3234 36.5299 87.993 36.1415C88.676 35.7532 89.4259 35.559 90.2428 35.559C91.0329 35.559 91.7225 35.7732 92.3118 36.2018C92.901 36.6303 93.3563 37.2061 93.6777 37.9293V29.3319H94.7222V45H93.6777V42.8306C93.3563 43.5537 92.901 44.1296 92.3118 44.5581C91.7225 44.9866 91.0329 45.2009 90.2428 45.2009C89.4259 45.2009 88.676 45.0067 87.993 44.6183C87.3234 44.23 86.7878 43.6742 86.386 42.9511C85.9843 42.228 85.7834 41.3709 85.7834 40.3799ZM86.848 40.3799C86.848 41.1834 87.0087 41.8731 87.3301 42.4489C87.6515 43.0114 88.0801 43.4466 88.6157 43.7546C89.1514 44.0626 89.7406 44.2166 90.3834 44.2166C90.9592 44.2166 91.4949 44.0492 91.9904 43.7144C92.4993 43.3796 92.9077 42.9243 93.2157 42.3485C93.5237 41.7726 93.6777 41.1165 93.6777 40.3799C93.6777 39.6434 93.5237 38.9872 93.2157 38.4114C92.9077 37.8355 92.4993 37.3802 91.9904 37.0454C91.4949 36.7106 90.9592 36.5433 90.3834 36.5433C89.7406 36.5433 89.1514 36.6973 88.6157 37.0053C88.0801 37.2999 87.6515 37.7351 87.3301 38.3109C87.0087 38.8868 86.848 39.5764 86.848 40.3799ZM97.9888 37.4472L97.4665 36.6638C97.8147 36.4093 98.27 36.1616 98.8325 35.9205C99.3949 35.6795 100.078 35.559 100.881 35.559C101.926 35.559 102.743 35.8134 103.332 36.3223C103.921 36.8178 104.216 37.5275 104.216 38.4515V45H103.171V43.2725C102.903 43.9287 102.462 44.4175 101.846 44.7389C101.243 45.0469 100.627 45.2009 99.9975 45.2009C99.4752 45.2009 98.9731 45.0937 98.491 44.8795C98.0223 44.6518 97.6339 44.3237 97.3259 43.8952C97.0313 43.4533 96.884 42.9109 96.884 42.2681C96.884 41.3575 97.192 40.6478 97.808 40.1389C98.4374 39.6166 99.2878 39.3555 100.359 39.3555C101.029 39.3555 101.598 39.4425 102.067 39.6166C102.535 39.7907 102.903 39.9648 103.171 40.1389V38.5922C103.171 38.2306 103.098 37.8891 102.95 37.5677C102.803 37.2463 102.555 36.9852 102.207 36.7843C101.872 36.5834 101.404 36.483 100.801 36.483C100.105 36.483 99.5221 36.5968 99.0534 36.8245C98.5981 37.0521 98.2432 37.2597 97.9888 37.4472ZM97.9486 42.228C97.9486 42.9243 98.1763 43.4466 98.6316 43.7948C99.1003 44.1296 99.6493 44.2969 100.279 44.2969C100.801 44.2969 101.276 44.1764 101.705 43.9354C102.147 43.6943 102.502 43.3395 102.77 42.8707C103.037 42.402 103.171 41.8262 103.171 41.1432V40.862C102.77 40.6344 102.348 40.467 101.906 40.3598C101.464 40.2527 101.002 40.1991 100.52 40.1991C99.7431 40.1991 99.1204 40.3665 98.6517 40.7013C98.183 41.0361 97.9486 41.545 97.9486 42.228ZM108.111 35.7598V37.1057C108.339 36.6236 108.633 36.2486 108.995 35.9808C109.37 35.6996 109.778 35.559 110.22 35.559C110.515 35.559 110.789 35.6058 111.044 35.6996C111.312 35.7799 111.553 35.9205 111.767 36.1214L111.184 36.9852C110.984 36.8379 110.789 36.7307 110.602 36.6638C110.428 36.5834 110.22 36.5433 109.979 36.5433C109.296 36.5433 108.814 36.8178 108.533 37.3668C108.252 37.9159 108.111 38.5855 108.111 39.3756V45H107.067V35.7598H108.111ZM113.52 31.5817C113.52 31.3808 113.587 31.2067 113.721 31.0594C113.869 30.9121 114.049 30.8385 114.264 30.8385C114.478 30.8385 114.652 30.9121 114.786 31.0594C114.933 31.2067 115.007 31.3808 115.007 31.5817C115.007 31.7826 114.933 31.9567 114.786 32.104C114.652 32.2513 114.478 32.3249 114.264 32.3249C114.049 32.3249 113.869 32.2513 113.721 32.104C113.587 31.9567 113.52 31.7826 113.52 31.5817ZM113.741 35.7598H114.786V45H113.741V35.7598ZM86.607 50.9389H90.4236C91.3342 50.9389 92.1444 51.113 92.8541 51.4612C93.5773 51.796 94.1464 52.278 94.5616 52.9075C94.9901 53.5369 95.2043 54.2868 95.2043 55.1572C95.2043 56.0143 94.9901 56.7642 94.5616 57.407C94.1464 58.0364 93.5773 58.5252 92.8541 58.8734C92.1444 59.2082 91.3342 59.3756 90.4236 59.3756H88.3144V65H86.607V50.9389ZM90.4236 52.5459H88.3144V57.7686H90.4236C91.3342 57.7686 92.0707 57.5476 92.6332 57.1057C93.209 56.6638 93.4969 56.0143 93.4969 55.1572C93.4969 54.2868 93.209 53.6373 92.6332 53.2088C92.0707 52.7668 91.3342 52.5459 90.4236 52.5459ZM100.479 65.2009C99.6218 65.2009 98.8585 65 98.1889 64.5983C97.5327 64.1831 97.0171 63.614 96.6422 62.8908C96.2806 62.1677 96.0998 61.3307 96.0998 60.3799C96.0998 59.4157 96.2873 58.5721 96.6622 57.8489C97.0506 57.1258 97.5863 56.5633 98.2692 56.1616C98.9656 55.7598 99.7691 55.559 100.68 55.559C102.032 55.559 103.097 55.9808 103.874 56.8245C104.65 57.6681 105.039 58.8265 105.039 60.2996C105.039 60.3933 105.032 60.4938 105.019 60.6009C105.019 60.6946 105.019 60.7549 105.019 60.7817H97.747C97.8139 61.7057 98.1018 62.4221 98.6107 62.931C99.1196 63.4399 99.8093 63.6943 100.68 63.6943C101.939 63.6943 102.903 63.1386 103.572 62.0271L104.878 62.8507C103.914 64.4175 102.447 65.2009 100.479 65.2009ZM100.68 56.9651C99.8896 56.9651 99.2468 57.1793 98.7513 57.6079C98.2558 58.023 97.9411 58.6256 97.8072 59.4157H103.291C103.237 58.6792 102.97 58.09 102.488 57.6481C102.019 57.1927 101.416 56.9651 100.68 56.9651ZM119.896 59.1747V65H118.289V59.3756C118.289 58.5855 118.142 58.0029 117.847 57.628C117.566 57.253 117.124 57.0655 116.522 57.0655C115.865 57.0655 115.343 57.2731 114.955 57.6882C114.566 58.09 114.372 58.6524 114.372 59.3756V65H112.765V59.3756C112.765 58.5855 112.618 58.0029 112.323 57.628C112.042 57.253 111.6 57.0655 110.998 57.0655C110.341 57.0655 109.819 57.2731 109.431 57.6882C109.042 58.09 108.848 58.6524 108.848 59.3756V65H107.241V55.7598H108.848V57.1057C109.397 56.0745 110.248 55.559 111.399 55.559C112.042 55.559 112.591 55.713 113.046 56.021C113.515 56.3156 113.857 56.7374 114.071 57.2865C114.714 56.1348 115.664 55.559 116.923 55.559C117.874 55.559 118.604 55.8737 119.113 56.5031C119.635 57.1325 119.896 58.023 119.896 59.1747ZM126.49 65.2009C125.633 65.2009 124.87 65 124.2 64.5983C123.544 64.1831 123.029 63.614 122.654 62.8908C122.292 62.1677 122.111 61.3307 122.111 60.3799C122.111 59.4157 122.299 58.5721 122.674 57.8489C123.062 57.1258 123.598 56.5633 124.281 56.1616C124.977 55.7598 125.781 55.559 126.691 55.559C128.044 55.559 129.108 55.9808 129.885 56.8245C130.662 57.6681 131.05 58.8265 131.05 60.2996C131.05 60.3933 131.043 60.4938 131.03 60.6009C131.03 60.6946 131.03 60.7549 131.03 60.7817H123.758C123.825 61.7057 124.113 62.4221 124.622 62.931C125.131 63.4399 125.821 63.6943 126.691 63.6943C127.95 63.6943 128.914 63.1386 129.584 62.0271L130.889 62.8507C129.925 64.4175 128.459 65.2009 126.49 65.2009ZM126.691 56.9651C125.901 56.9651 125.258 57.1793 124.763 57.6079C124.267 58.023 123.953 58.6256 123.819 59.4157H129.303C129.249 58.6792 128.981 58.09 128.499 57.6481C128.03 57.1927 127.428 56.9651 126.691 56.9651ZM137.652 57.5275C137.438 57.3668 137.243 57.253 137.069 57.186C136.895 57.1057 136.674 57.0655 136.406 57.0655C135.804 57.0655 135.395 57.2865 135.181 57.7284C134.967 58.1569 134.86 58.706 134.86 59.3756V65H133.253V55.7598H134.86V56.8245C135.114 56.4361 135.415 56.1281 135.764 55.9005C136.112 55.6728 136.46 55.559 136.808 55.559C137.143 55.559 137.451 55.6058 137.732 55.6996C138.027 55.7799 138.295 55.9473 138.536 56.2018L137.652 57.5275ZM140.138 51.9433C140.138 51.6353 140.245 51.3741 140.459 51.1599C140.687 50.9456 140.948 50.8385 141.243 50.8385C141.551 50.8385 141.812 50.9456 142.026 51.1599C142.241 51.3741 142.348 51.6353 142.348 51.9433C142.348 52.2379 142.241 52.499 142.026 52.7267C141.812 52.9409 141.551 53.0481 141.243 53.0481C140.948 53.0481 140.687 52.9409 140.459 52.7267C140.245 52.499 140.138 52.2379 140.138 51.9433ZM140.439 55.7598H142.046V65H140.439V55.7598ZM151.282 59.3756C151.282 57.8355 150.626 57.0655 149.313 57.0655C148.617 57.0655 148.048 57.2798 147.606 57.7083C147.177 58.1368 146.963 58.6926 146.963 59.3756V65H145.356V55.7598H146.963V57.2061C147.566 56.108 148.483 55.559 149.715 55.559C150.693 55.559 151.463 55.8871 152.025 56.5433C152.601 57.186 152.889 58.0632 152.889 59.1747V65H151.282V59.3756ZM154.504 55.7598H156.01V52.5459H157.617V55.7598H159.124V57.2664H157.617V65H156.01V57.2664H154.504V55.7598ZM161.217 57.8891L160.434 56.7039C160.782 56.4495 161.258 56.1951 161.86 55.9406C162.476 55.6862 163.213 55.559 164.07 55.559C165.141 55.559 166.012 55.8067 166.681 56.3022C167.351 56.7843 167.686 57.474 167.686 58.3712V65H166.079V63.7546C165.784 64.2367 165.342 64.5983 164.753 64.8393C164.164 65.0803 163.588 65.2009 163.025 65.2009C162.463 65.2009 161.934 65.087 161.438 64.8594C160.956 64.6183 160.568 64.2769 160.273 63.8349C159.979 63.393 159.831 62.8574 159.831 62.228C159.831 61.3307 160.146 60.6143 160.776 60.0786C161.418 59.5296 162.309 59.255 163.447 59.255C164.063 59.255 164.585 59.3287 165.014 59.476C165.456 59.6099 165.811 59.7639 166.079 59.938V58.5922C166.079 57.9628 165.871 57.5342 165.456 57.3066C165.054 57.0789 164.565 56.9651 163.99 56.9651C163.293 56.9651 162.711 57.0789 162.242 57.3066C161.773 57.5342 161.432 57.7284 161.217 57.8891ZM161.459 62.1476C161.459 62.6833 161.639 63.0984 162.001 63.393C162.376 63.6742 162.858 63.8148 163.447 63.8148C164.184 63.8148 164.806 63.5939 165.315 63.152C165.824 62.71 166.079 62.1208 166.079 61.3843V61.0428C165.704 60.8553 165.322 60.7214 164.934 60.6411C164.545 60.5607 164.137 60.5205 163.708 60.5205C162.932 60.5205 162.362 60.6678 162.001 60.9625C161.639 61.2437 161.459 61.6387 161.459 62.1476ZM176.332 59.3756C176.332 57.8355 175.676 57.0655 174.363 57.0655C173.667 57.0655 173.098 57.2865 172.656 57.7284C172.228 58.1569 172.013 58.706 172.013 59.3756V65H170.406V49.3319H172.013V57.2262C172.294 56.7173 172.669 56.3156 173.138 56.021C173.62 55.713 174.163 55.559 174.765 55.559C175.716 55.559 176.479 55.867 177.055 56.483C177.644 57.0856 177.939 57.9828 177.939 59.1747V65H176.332V59.3756ZM181.442 57.8891L180.659 56.7039C181.007 56.4495 181.482 56.1951 182.085 55.9406C182.701 55.6862 183.437 55.559 184.294 55.559C185.366 55.559 186.236 55.8067 186.906 56.3022C187.575 56.7843 187.91 57.474 187.91 58.3712V65H186.303V63.7546C186.009 64.2367 185.567 64.5983 184.977 64.8393C184.388 65.0803 183.812 65.2009 183.25 65.2009C182.687 65.2009 182.159 65.087 181.663 64.8594C181.181 64.6183 180.793 64.2769 180.498 63.8349C180.203 63.393 180.056 62.8574 180.056 62.228C180.056 61.3307 180.371 60.6143 181 60.0786C181.643 59.5296 182.533 59.255 183.672 59.255C184.288 59.255 184.81 59.3287 185.239 59.476C185.68 59.6099 186.035 59.7639 186.303 59.938V58.5922C186.303 57.9628 186.096 57.5342 185.68 57.3066C185.279 57.0789 184.79 56.9651 184.214 56.9651C183.518 56.9651 182.935 57.0789 182.467 57.3066C181.998 57.5342 181.656 57.7284 181.442 57.8891ZM181.683 62.1476C181.683 62.6833 181.864 63.0984 182.225 63.393C182.6 63.6742 183.083 63.8148 183.672 63.8148C184.408 63.8148 185.031 63.5939 185.54 63.152C186.049 62.71 186.303 62.1208 186.303 61.3843V61.0428C185.928 60.8553 185.547 60.7214 185.158 60.6411C184.77 60.5607 184.361 60.5205 183.933 60.5205C183.156 60.5205 182.587 60.6678 182.225 60.9625C181.864 61.2437 181.683 61.6387 181.683 62.1476ZM196.557 59.3756C196.557 57.8355 195.9 57.0655 194.588 57.0655C193.892 57.0655 193.323 57.2798 192.881 57.7083C192.452 58.1368 192.238 58.6926 192.238 59.3756V65H190.631V55.7598H192.238V57.2061C192.841 56.108 193.758 55.559 194.99 55.559C195.967 55.559 196.737 55.8871 197.3 56.5433C197.876 57.186 198.164 58.0632 198.164 59.1747V65H196.557V59.3756ZM86.607 70.9389H88.3144V85H86.607V70.9389ZM97.356 79.3756C97.356 77.8355 96.6999 77.0655 95.3875 77.0655C94.6911 77.0655 94.122 77.2798 93.6801 77.7083C93.2515 78.1368 93.0373 78.6926 93.0373 79.3756V85H91.4303V75.7598H93.0373V77.2061C93.6399 76.108 94.5572 75.559 95.7892 75.559C96.7668 75.559 97.5368 75.8871 98.0993 76.5433C98.6751 77.186 98.963 78.0632 98.963 79.1747V85H97.356V79.3756ZM101.18 80.3799C101.18 79.3756 101.388 78.5185 101.803 77.8088C102.218 77.0856 102.774 76.5299 103.47 76.1415C104.167 75.7532 104.93 75.559 105.76 75.559C106.443 75.559 107.053 75.713 107.588 76.021C108.137 76.329 108.579 76.7709 108.914 77.3467V69.3319H110.521V85H108.914V83.4131C108.579 83.9889 108.137 84.4309 107.588 84.7389C107.053 85.0469 106.443 85.2009 105.76 85.2009C104.93 85.2009 104.167 85.0067 103.47 84.6183C102.774 84.23 102.218 83.6742 101.803 82.9511C101.388 82.228 101.18 81.3709 101.18 80.3799ZM102.808 80.3799C102.808 81.0897 102.948 81.6923 103.229 82.1878C103.524 82.6833 103.912 83.0582 104.394 83.3127C104.877 83.5671 105.399 83.6943 105.961 83.6943C106.43 83.6943 106.892 83.5671 107.347 83.3127C107.803 83.0582 108.178 82.6833 108.472 82.1878C108.767 81.6923 108.914 81.0897 108.914 80.3799C108.914 79.6702 108.767 79.0676 108.472 78.5721C108.178 78.0766 107.803 77.7016 107.347 77.4472C106.892 77.1927 106.43 77.0655 105.961 77.0655C105.399 77.0655 104.877 77.1927 104.394 77.4472C103.912 77.7016 103.524 78.0766 103.229 78.5721C102.948 79.0676 102.808 79.6702 102.808 80.3799ZM112.637 80.3799C112.637 79.4425 112.844 78.6122 113.259 77.8891C113.688 77.166 114.264 76.5968 114.987 76.1817C115.71 75.7665 116.52 75.559 117.417 75.559C118.328 75.559 119.138 75.7665 119.848 76.1817C120.571 76.5968 121.14 77.166 121.555 77.8891C121.984 78.6122 122.198 79.4425 122.198 80.3799C122.198 81.3039 121.984 82.1342 121.555 82.8707C121.14 83.5939 120.571 84.163 119.848 84.5782C119.138 84.9933 118.328 85.2009 117.417 85.2009C116.52 85.2009 115.71 84.9933 114.987 84.5782C114.264 84.163 113.688 83.5939 113.259 82.8707C112.844 82.1342 112.637 81.3039 112.637 80.3799ZM114.264 80.3799C114.264 81.0227 114.397 81.5919 114.665 82.0873C114.947 82.5828 115.322 82.9779 115.79 83.2725C116.272 83.5537 116.815 83.6943 117.417 83.6943C118.02 83.6943 118.556 83.5537 119.024 83.2725C119.506 82.9779 119.881 82.5828 120.149 82.0873C120.43 81.5919 120.571 81.0227 120.571 80.3799C120.571 79.7371 120.43 79.168 120.149 78.6725C119.881 78.1636 119.506 77.7686 119.024 77.4874C118.556 77.2061 118.02 77.0655 117.417 77.0655C116.815 77.0655 116.272 77.2061 115.79 77.4874C115.322 77.7686 114.947 78.1636 114.665 78.6725C114.397 79.168 114.264 79.7371 114.264 80.3799ZM130.331 79.3756C130.331 77.8355 129.675 77.0655 128.363 77.0655C127.666 77.0655 127.097 77.2798 126.655 77.7083C126.227 78.1368 126.013 78.6926 126.013 79.3756V85H124.406V75.7598H126.013V77.2061C126.615 76.108 127.533 75.559 128.765 75.559C129.742 75.559 130.512 75.8871 131.075 76.5433C131.65 77.186 131.938 78.0632 131.938 79.1747V85H130.331V79.3756ZM138.535 85.2009C137.678 85.2009 136.914 85 136.245 84.5983C135.589 84.1831 135.073 83.614 134.698 82.8908C134.337 82.1677 134.156 81.3307 134.156 80.3799C134.156 79.4157 134.343 78.5721 134.718 77.8489C135.107 77.1258 135.642 76.5633 136.325 76.1616C137.022 75.7598 137.825 75.559 138.736 75.559C140.088 75.559 141.153 75.9808 141.93 76.8245C142.706 77.6681 143.095 78.8265 143.095 80.2996C143.095 80.3933 143.088 80.4938 143.075 80.6009C143.075 80.6946 143.075 80.7549 143.075 80.7817H135.803C135.87 81.7057 136.158 82.4221 136.667 82.931C137.176 83.4399 137.865 83.6943 138.736 83.6943C139.995 83.6943 140.959 83.1386 141.628 82.0271L142.934 82.8507C141.97 84.4175 140.503 85.2009 138.535 85.2009ZM138.736 76.9651C137.946 76.9651 137.303 77.1793 136.807 77.6079C136.312 78.023 135.997 78.6256 135.863 79.4157H141.347C141.293 78.6792 141.026 78.09 140.544 77.6481C140.075 77.1927 139.472 76.9651 138.736 76.9651ZM145.679 82.1677C145.96 82.5962 146.302 82.9645 146.703 83.2725C147.118 83.5805 147.614 83.7345 148.19 83.7345C148.645 83.7345 149 83.6341 149.254 83.4332C149.522 83.2189 149.656 82.931 149.656 82.5694C149.656 82.248 149.549 81.9802 149.335 81.7659C149.134 81.5383 148.873 81.3508 148.551 81.2035C148.23 81.0428 147.888 80.8955 147.527 80.7616C147.125 80.6009 146.717 80.4134 146.302 80.1991C145.9 79.9715 145.558 79.6836 145.277 79.3354C145.009 78.9738 144.875 78.5252 144.875 77.9895C144.875 77.4405 145.016 76.9852 145.297 76.6236C145.592 76.262 145.967 75.9942 146.422 75.8201C146.891 75.646 147.373 75.559 147.868 75.559C148.605 75.559 149.274 75.7331 149.877 76.0812C150.48 76.4294 150.922 76.858 151.203 77.3668L149.917 78.1904C149.663 77.8422 149.341 77.5543 148.953 77.3267C148.578 77.099 148.15 76.9852 147.667 76.9852C147.333 76.9852 147.045 77.0588 146.804 77.2061C146.563 77.3534 146.442 77.5811 146.442 77.8891C146.442 78.2641 146.636 78.5721 147.025 78.8131C147.426 79.0408 147.875 79.255 148.371 79.4559C148.906 79.6702 149.395 79.9045 149.837 80.159C150.279 80.4 150.627 80.6946 150.881 81.0428C151.149 81.391 151.283 81.8396 151.283 82.3887C151.283 83.1921 150.989 83.8617 150.399 84.3974C149.824 84.933 149.06 85.2009 148.109 85.2009C147.493 85.2009 146.938 85.0937 146.442 84.8795C145.947 84.6518 145.525 84.3639 145.177 84.0157C144.842 83.6675 144.587 83.3127 144.413 82.9511L145.679 82.1677ZM153.399 71.9433C153.399 71.6353 153.506 71.3741 153.72 71.1599C153.948 70.9456 154.209 70.8385 154.504 70.8385C154.812 70.8385 155.073 70.9456 155.287 71.1599C155.501 71.3741 155.608 71.6353 155.608 71.9433C155.608 72.2379 155.501 72.499 155.287 72.7267C155.073 72.9409 154.812 73.0481 154.504 73.0481C154.209 73.0481 153.948 72.9409 153.72 72.7267C153.506 72.499 153.399 72.2379 153.399 71.9433ZM153.7 75.7598H155.307V85H153.7V75.7598ZM159.099 77.8891L158.315 76.7039C158.664 76.4495 159.139 76.1951 159.742 75.9406C160.358 75.6862 161.094 75.559 161.951 75.559C163.023 75.559 163.893 75.8067 164.563 76.3022C165.232 76.7843 165.567 77.474 165.567 78.3712V85H163.96V83.7546C163.665 84.2367 163.223 84.5983 162.634 84.8393C162.045 85.0803 161.469 85.2009 160.907 85.2009C160.344 85.2009 159.815 85.087 159.32 84.8594C158.838 84.6183 158.449 84.2769 158.155 83.8349C157.86 83.393 157.713 82.8574 157.713 82.228C157.713 81.3307 158.028 80.6143 158.657 80.0786C159.3 79.5296 160.19 79.255 161.329 79.255C161.945 79.255 162.467 79.3287 162.895 79.476C163.337 79.6099 163.692 79.7639 163.96 79.938V78.5922C163.96 77.9628 163.752 77.5342 163.337 77.3066C162.936 77.0789 162.447 76.9651 161.871 76.9651C161.175 76.9651 160.592 77.0789 160.123 77.3066C159.655 77.5342 159.313 77.7284 159.099 77.8891ZM159.34 82.1476C159.34 82.6833 159.521 83.0984 159.882 83.393C160.257 83.6742 160.739 83.8148 161.329 83.8148C162.065 83.8148 162.688 83.5939 163.197 83.152C163.706 82.71 163.96 82.1208 163.96 81.3843V81.0428C163.585 80.8553 163.203 80.7214 162.815 80.6411C162.427 80.5607 162.018 80.5205 161.59 80.5205C160.813 80.5205 160.244 80.6678 159.882 80.9625C159.521 81.2437 159.34 81.6387 159.34 82.1476Z" fill="#E3E3E3"/>
</svg>
