<svg width="200" height="87" fill="none" xmlns="http://www.w3.org/2000/svg"><path d="M19.3788 77.239h-6.6195l7.1009-40.9205h6.3788l-.7221 4.4531c1.1634-1.5646 2.5675-2.8083 4.2124-3.731 1.6849-.9628 3.5504-1.4442 5.5964-1.4442 2.5676 0 4.7139.6619 6.439 1.9858 1.7652 1.3239 3.0289 3.0891 3.7912 5.2956.8023 2.2065 1.023 4.6336.6619 7.2814-.361 2.7682-1.2838 5.2555-2.7681 7.462-1.4844 2.2065-3.3298 3.9517-5.5363 5.2354-2.1664 1.2437-4.5334 1.8655-7.1009 1.8655-2.2065 0-3.9918-.5416-5.3558-1.6248-1.364-1.1233-2.367-2.5475-3.0089-4.2725l-3.069 18.4142zm20.2195-27.0798c.2407-1.5646.1404-3.0088-.3009-4.3327-.4011-1.3239-1.1233-2.367-2.1663-3.1292-1.0431-.8024-2.3469-1.2036-3.9116-1.2036-1.4041 0-2.7681.3811-4.092 1.1434-1.3239.7622-2.4673 1.8053-3.4301 3.1292-.9227 1.2838-1.5044 2.7481-1.7451 4.3929-.2006 1.5245-.1003 2.9487.3008 4.2726.4413 1.2838 1.1434 2.3269 2.1062 3.1292.9629.8024 2.1263 1.2236 3.4903 1.2638 1.5646.0401 3.0289-.321 4.393-1.0832 1.4041-.7623 2.5876-1.8053 3.5504-3.1292.9629-1.3239 1.5646-2.8083 1.8053-4.4532zm18.5534-28.2833h8.0638l-6.4992 29.3665h-5.0549l3.4903-29.3665zm-6.9204 39.1754c0-1.1634.4012-2.1262 1.2036-2.8885.8425-.7622 1.8655-1.1434 3.069-1.1434 1.2036 0 2.2065.3812 3.0089 1.1434.8023.7623 1.2035 1.7251 1.2035 2.8885 0 1.1233-.4012 2.0862-1.2035 2.8885-.8024.8024-1.8053 1.2036-3.0089 1.2036-1.2035 0-2.2265-.4012-3.069-1.2036-.8024-.8023-1.2036-1.7652-1.2036-2.8885z" fill="#E3E3E3"/><circle cx="39" cy="48" r="36" stroke="#E3E3E3" stroke-width="6"/><path d="M87.6314 41.6253c0 .8169.1741 1.453.5223 1.9083.3616.4553.9106.683 1.6472.683.5222 0 .9842-.1272 1.386-.3817.4151-.2544.7365-.5959.9642-1.0244.241-.4285.3615-.9039.3615-1.4262v-5.6245h1.0446V45h-1.0446v-1.9284c-.2544.6696-.6361 1.1919-1.1449 1.5668-.5089.375-1.1115.5625-1.8079.5625-.9642 0-1.7007-.308-2.2096-.924-.5089-.6294-.7633-1.4731-.7633-2.531v-5.9861h1.0445v5.8655zm15.0226-2.5711c0-.7901-.174-1.4061-.522-1.8481-.348-.4419-.897-.6628-1.647-.6628-.5223 0-.991.1272-1.4062.3816-.4017.2544-.7231.5959-.9642 1.0245-.2276.4151-.3414.8905-.3414 1.4262V45h-1.0446v-9.2402h1.0446v1.9284c.2678-.6696.6561-1.1918 1.165-1.5668.5089-.3749 1.1048-.5624 1.7878-.5624.964 0 1.701.308 2.21.924.508.6026.763 1.4195.763 2.4506V45h-1.045v-5.9458zm2.81-3.2944h1.507v-3.2139h1.044v3.2139h1.507v.9843h-1.507V45h-1.044v-8.2559h-1.507v-.9843zm6.865 5.8655c0 .8169.174 1.453.522 1.9083.361.4553.91.683 1.647.683.522 0 .984-.1272 1.386-.3817.415-.2544.737-.5959.964-1.0244.241-.4285.362-.9039.362-1.4262v-5.6245h1.044V45h-1.044v-1.9284c-.255.6696-.636 1.1919-1.145 1.5668-.509.375-1.112.5625-1.808.5625-.964 0-1.701-.308-2.21-.924-.508-.6294-.763-1.4731-.763-2.531v-5.9861h1.045v5.8655zm13.998-5.8655h1.346l-4.359 3.8166L128.055 45h-1.326l-4.359-4.9816V45h-1.045V29.3319h1.045v9.903l3.957-3.4751zM88.5555 55.4987L87.5109 65h-1.7074l1.7074-14.7642 5.6245 10.1843 5.6244-10.1843L100.467 65h-1.7072l-1.0445-9.5013-4.5799 8.1956-4.5799-8.1956zm14.6955 2.3904l-.784-1.1852c.348-.2544.824-.5088 1.427-.7633.616-.2544 1.352-.3816 2.209-.3816 1.071 0 1.942.2477 2.611.7432.67.4821 1.005 1.1718 1.005 2.069V65h-1.607v-1.2454c-.295.4821-.737.8437-1.326 1.0847-.589.241-1.165.3616-1.727.3616-.563 0-1.092-.1139-1.587-.3415-.482-.2411-.871-.5825-1.165-1.0245-.295-.4419-.442-.9775-.442-1.6069 0-.8973.314-1.6137.944-2.1494.643-.549 1.533-.8236 2.671-.8236.616 0 1.139.0737 1.567.221.442.1339.797.2879 1.065.462v-1.3458c0-.6294-.208-1.058-.623-1.2856-.402-.2277-.89-.3415-1.466-.3415-.697 0-1.279.1138-1.748.3415-.469.2276-.81.4218-1.024.5825zm.241 4.2585c0 .5357.181.9508.542 1.2454.375.2812.857.4218 1.446.4218.737 0 1.36-.2209 1.869-.6628.508-.442.763-1.0312.763-1.7677v-.3415c-.375-.1875-.757-.3214-1.145-.4017-.388-.0804-.797-.1206-1.225-.1206-.777 0-1.346.1473-1.708.442-.361.2812-.542.6762-.542 1.1851zm9.329.0201c.281.4285.623.7968 1.025 1.1048.415.308.91.462 1.486.462.455 0 .81-.1004 1.065-.3013.268-.2143.401-.5022.401-.8638 0-.3214-.107-.5892-.321-.8035-.201-.2276-.462-.4151-.783-.5624-.322-.1607-.663-.308-1.025-.4419-.402-.1607-.81-.3482-1.225-.5625-.402-.2276-.743-.5155-1.025-.8637-.267-.3616-.401-.8102-.401-1.3459 0-.549.14-1.0043.422-1.3659.294-.3616.669-.6294 1.124-.8035.469-.1741.951-.2611 1.447-.2611.736 0 1.406.1741 2.008.5222.603.3482 1.045.7768 1.326 1.2856l-1.285.8236c-.255-.3482-.576-.6361-.965-.8637-.375-.2277-.803-.3415-1.285-.3415-.335 0-.623.0736-.864.2209-.241.1473-.361.375-.361.683 0 .375.194.683.582.924.402.2277.85.4419 1.346.6428.536.2143 1.024.4486 1.466.7031.442.241.79.5356 1.045.8838.268.3482.402.7968.402 1.3459 0 .8034-.295 1.473-.884 2.0087-.576.5356-1.339.8035-2.29.8035-.616 0-1.172-.1072-1.667-.3214-.496-.2277-.918-.5156-1.266-.8638-.335-.3482-.589-.703-.763-1.0646l1.265-.7834zm14.954-6.4079l-6.026 13.6594h-1.808l2.531-5.7249-3.535-7.9345h1.908l2.591 6.3677 2.531-6.3677h1.808zm1.997 2.1293l-.783-1.1852c.348-.2544.823-.5088 1.426-.7633.616-.2544 1.353-.3816 2.21-.3816 1.071 0 1.941.2477 2.611.7432.67.4821 1.004 1.1718 1.004 2.069V65h-1.607v-1.2454c-.294.4821-.736.8437-1.325 1.0847-.59.241-1.165.3616-1.728.3616-.562 0-1.091-.1139-1.587-.3415-.482-.2411-.87-.5825-1.165-1.0245-.295-.4419-.442-.9775-.442-1.6069 0-.8973.315-1.6137.944-2.1494.643-.549 1.534-.8236 2.672-.8236.616 0 1.138.0737 1.567.221.442.1339.797.2879 1.064.462v-1.3458c0-.6294-.207-1.058-.622-1.2856-.402-.2277-.891-.3415-1.467-.3415-.696 0-1.279.1138-1.747.3415-.469.2276-.811.4218-1.025.5825zm.241 4.2585c0 .5357.181.9508.543 1.2454.375.2812.857.4218 1.446.4218.736 0 1.359-.2209 1.868-.6628.509-.442.763-1.0312.763-1.7677v-.3415c-.375-.1875-.756-.3214-1.145-.4017-.388-.0804-.796-.1206-1.225-.1206-.777 0-1.346.1473-1.707.442-.362.2812-.543.6762-.543 1.1851zm13.347-4.6201c-.214-.1607-.408-.2745-.582-.3415-.174-.0803-.395-.1205-.663-.1205-.603 0-1.011.221-1.226.6629-.214.4285-.321.9776-.321 1.6472V65h-1.607v-9.2402h1.607v1.0647c.254-.3884.556-.6964.904-.924.348-.2277.696-.3415 1.045-.3415.334 0 .642.0468.924.1406.294.0803.562.2477.803.5022l-.884 1.3257zm2.969.3616l-.784-1.1852c.348-.2544.824-.5088 1.426-.7633.616-.2544 1.353-.3816 2.21-.3816 1.071 0 1.942.2477 2.611.7432.67.4821 1.005 1.1718 1.005 2.069V65h-1.607v-1.2454c-.295.4821-.737.8437-1.326 1.0847-.589.241-1.165.3616-1.728.3616-.562 0-1.091-.1139-1.587-.3415-.482-.2411-.87-.5825-1.165-1.0245-.294-.4419-.441-.9775-.441-1.6069 0-.8973.314-1.6137.944-2.1494.642-.549 1.533-.8236 2.671-.8236.616 0 1.139.0737 1.567.221.442.1339.797.2879 1.065.462v-1.3458c0-.6294-.208-1.058-.623-1.2856-.402-.2277-.891-.3415-1.466-.3415-.697 0-1.279.1138-1.748.3415-.469.2276-.81.4218-1.024.5825zm.241 4.2585c0 .5357.18.9508.542 1.2454.375.2812.857.4218 1.446.4218.737 0 1.359-.2209 1.868-.6628.509-.442.764-1.0312.764-1.7677v-.3415c-.375-.1875-.757-.3214-1.145-.4017-.389-.0804-.797-.1206-1.226-.1206-.776 0-1.345.1473-1.707.442-.362.2812-.542.6762-.542 1.1851zm13.869-6.3878h2.008l-4.017 3.8166L162.849 65h-2.008l-3.817-4.6803V65h-1.607V49.3319h1.607v9.662l3.415-3.2341zm4.408 2.1293l-.784-1.1852c.348-.2544.824-.5088 1.426-.7633.616-.2544 1.353-.3816 2.21-.3816 1.071 0 1.942.2477 2.611.7432.67.4821 1.005 1.1718 1.005 2.069V65h-1.607v-1.2454c-.295.4821-.737.8437-1.326 1.0847-.589.241-1.165.3616-1.728.3616-.562 0-1.091-.1139-1.587-.3415-.482-.2411-.87-.5825-1.165-1.0245-.294-.4419-.442-.9775-.442-1.6069 0-.8973.315-1.6137.945-2.1494.642-.549 1.533-.8236 2.671-.8236.616 0 1.138.0737 1.567.221.442.1339.797.2879 1.065.462v-1.3458c0-.6294-.208-1.058-.623-1.2856-.402-.2277-.891-.3415-1.466-.3415-.697 0-1.279.1138-1.748.3415-.469.2276-.81.4218-1.024.5825zm.241 4.2585c0 .5357.18.9508.542 1.2454.375.2812.857.4218 1.446.4218.737 0 1.359-.2209 1.868-.6628.509-.442.764-1.0312.764-1.7677v-.3415c-.375-.1875-.757-.3214-1.145-.4017-.389-.0804-.797-.1206-1.226-.1206-.776 0-1.346.1473-1.707.442-.362.2812-.542.6762-.542 1.1851zm7.541-6.3878h1.507v-3.2139h1.607v3.2139h1.506v1.5066h-1.506V65h-1.607v-7.7336h-1.507v-1.5066zM86.607 70.9389h1.7074V85H86.607V70.9389zm10.749 8.4367c0-1.5401-.6561-2.3101-1.9685-2.3101-.6964 0-1.2655.2143-1.7074.6428-.4286.4285-.6428.9843-.6428 1.6673V85h-1.607v-9.2402h1.607v1.4463c.6026-1.0981 1.5199-1.6471 2.7519-1.6471.9776 0 1.7476.3281 2.3101.9843.5758.6427.8637 1.5199.8637 2.6314V85h-1.607v-5.6244zm3.824 1.0043c0-1.0043.208-1.8614.623-2.5711.415-.7232.971-1.2789 1.667-1.6673.697-.3883 1.46-.5825 2.29-.5825.683 0 1.293.154 1.828.462.549.308.991.7499 1.326 1.3257v-8.0148h1.607V85h-1.607v-1.5869c-.335.5758-.777 1.0178-1.326 1.3258-.535.308-1.145.462-1.828.462-.83 0-1.593-.1942-2.29-.5826-.696-.3883-1.252-.9441-1.667-1.6672-.415-.7231-.623-1.5802-.623-2.5712zm1.628 0c0 .7098.14 1.3124.421 1.8079.295.4955.683.8704 1.165 1.1249.483.2544 1.005.3816 1.567.3816.469 0 .931-.1272 1.386-.3816.456-.2545.831-.6294 1.125-1.1249.295-.4955.442-1.0981.442-1.8079 0-.7097-.147-1.3123-.442-1.8078-.294-.4955-.669-.8705-1.125-1.1249-.455-.2545-.917-.3817-1.386-.3817-.562 0-1.084.1272-1.567.3817-.482.2544-.87.6294-1.165 1.1249-.281.4955-.421 1.0981-.421 1.8078zm9.829 0c0-.9374.207-1.7677.622-2.4908.429-.7231 1.005-1.2923 1.728-1.7074.723-.4152 1.533-.6227 2.43-.6227.911 0 1.721.2075 2.431.6227.723.4151 1.292.9843 1.707 1.7074.429.7231.643 1.5534.643 2.4908 0 .924-.214 1.7543-.643 2.4908-.415.7232-.984 1.2923-1.707 1.7075-.71.4151-1.52.6227-2.431.6227-.897 0-1.707-.2076-2.43-.6227-.723-.4152-1.299-.9843-1.728-1.7075-.415-.7365-.622-1.5668-.622-2.4908zm1.627 0c0 .6428.133 1.212.401 1.7074.282.4955.657.8906 1.125 1.1852.482.2812 1.025.4218 1.627.4218.603 0 1.139-.1406 1.607-.4218.482-.2946.857-.6897 1.125-1.1852.281-.4954.422-1.0646.422-1.7074s-.141-1.2119-.422-1.7074c-.268-.5089-.643-.9039-1.125-1.1851-.468-.2813-1.004-.4219-1.607-.4219-.602 0-1.145.1406-1.627.4219-.468.2812-.843.6762-1.125 1.1851-.268.4955-.401 1.0646-.401 1.7074zm16.067-1.0043c0-1.5401-.656-2.3101-1.968-2.3101-.697 0-1.266.2143-1.708.6428-.428.4285-.642.9843-.642 1.6673V85h-1.607v-9.2402h1.607v1.4463c.602-1.0981 1.52-1.6471 2.752-1.6471.977 0 1.747.3281 2.31.9843.575.6427.863 1.5199.863 2.6314V85h-1.607v-5.6244zm8.204 5.8253c-.857 0-1.621-.2009-2.29-.6026-.656-.4152-1.172-.9843-1.547-1.7075-.361-.7231-.542-1.5601-.542-2.5109 0-.9642.187-1.8078.562-2.531.389-.7231.924-1.2856 1.607-1.6873.697-.4018 1.5-.6026 2.411-.6026 1.352 0 2.417.4218 3.194 1.2655.776.8436 1.165 2.002 1.165 3.4751 0 .0937-.007.1942-.02.3013v.1808h-7.272c.067.924.355 1.6404.864 2.1493.509.5089 1.198.7633 2.069.7633 1.259 0 2.223-.5557 2.892-1.6672l1.306.8236c-.964 1.5668-2.431 2.3502-4.399 2.3502zm.201-8.2358c-.79 0-1.433.2142-1.929.6428-.495.4151-.81 1.0177-.944 1.8078h5.484c-.054-.7365-.321-1.3257-.803-1.7676-.469-.4554-1.072-.683-1.808-.683zm6.943 5.2026c.281.4285.623.7968 1.024 1.1048.415.308.911.462 1.487.462.455 0 .81-.1004 1.064-.3013.268-.2143.402-.5022.402-.8638 0-.3214-.107-.5892-.321-.8035-.201-.2276-.462-.4151-.784-.5624-.321-.1607-.663-.308-1.024-.4419-.402-.1607-.81-.3482-1.225-.5625-.402-.2276-.744-.5155-1.025-.8637-.268-.3616-.402-.8102-.402-1.3459 0-.549.141-1.0043.422-1.3659.295-.3616.67-.6294 1.125-.8035.469-.1741.951-.2611 1.446-.2611.737 0 1.406.1741 2.009.5222.603.3482 1.045.7768 1.326 1.2856l-1.286.8236c-.254-.3482-.576-.6361-.964-.8637-.375-.2277-.803-.3415-1.286-.3415-.334 0-.622.0736-.863.2209-.241.1473-.362.375-.362.683 0 .375.194.683.583.924.401.2277.85.4419 1.346.6428.535.2143 1.024.4486 1.466.7031.442.241.79.5356 1.044.8838.268.3482.402.7968.402 1.3459 0 .8034-.294 1.473-.884 2.0087-.575.5356-1.339.8035-2.29.8035-.616 0-1.171-.1072-1.667-.3214-.495-.2277-.917-.5156-1.265-.8638-.335-.3482-.59-.703-.764-1.0646l1.266-.7834zm7.72-10.2244c0-.308.107-.5692.321-.7834.228-.2143.489-.3214.784-.3214.308 0 .569.1071.783.3214.214.2142.321.4754.321.7834 0 .2946-.107.5557-.321.7834-.214.2142-.475.3214-.783.3214-.295 0-.556-.1072-.784-.3214-.214-.2277-.321-.4888-.321-.7834zm.301 3.8165h1.607V85H153.7v-9.2402zm5.399 2.1293l-.784-1.1852c.349-.2544.824-.5088 1.427-.7633.616-.2544 1.352-.3816 2.209-.3816 1.072 0 1.942.2477 2.612.7432.669.4821 1.004 1.1718 1.004 2.069V85h-1.607v-1.2454c-.295.4821-.737.8437-1.326 1.0847-.589.241-1.165.3616-1.727.3616-.563 0-1.092-.1139-1.587-.3415-.482-.2411-.871-.5825-1.165-1.0245-.295-.4419-.442-.9775-.442-1.6069 0-.8973.315-1.6137.944-2.1494.643-.549 1.533-.8236 2.672-.8236.616 0 1.138.0737 1.566.221.442.1339.797.2879 1.065.462v-1.3458c0-.6294-.208-1.058-.623-1.2856-.401-.2277-.89-.3415-1.466-.3415-.696 0-1.279.1138-1.748.3415-.468.2276-.81.4218-1.024.5825zm.241 4.2585c0 .5357.181.9508.542 1.2454.375.2812.857.4218 1.447.4218.736 0 1.359-.2209 1.868-.6628.509-.442.763-1.0312.763-1.7677v-.3415c-.375-.1875-.757-.3214-1.145-.4017-.388-.0804-.797-.1206-1.225-.1206-.777 0-1.346.1473-1.708.442-.361.2812-.542.6762-.542 1.1851z" fill="#E3E3E3"/></svg>