<svg width="565" height="96" viewBox="0 0 565 96" fill="none" xmlns="http://www.w3.org/2000/svg">
<path d="M19.3788 77.239H12.7593L19.8602 36.3185H26.239L25.5169 40.7716C26.6803 39.207 28.0844 37.9633 29.7293 37.0406C31.4142 36.0778 33.2797 35.5964 35.3257 35.5964C37.8933 35.5964 40.0396 36.2583 41.7647 37.5822C43.5299 38.9061 44.7936 40.6713 45.5559 42.8778C46.3582 45.0843 46.5789 47.5114 46.2178 50.1592C45.8568 52.9274 44.934 55.4147 43.4497 57.6212C41.9653 59.8277 40.1199 61.5729 37.9134 62.8566C35.747 64.1003 33.38 64.7221 30.8125 64.7221C28.606 64.7221 26.8207 64.1805 25.4567 63.0973C24.0927 61.974 23.0897 60.5498 22.4478 58.8248L19.3788 77.239ZM39.5983 50.1592C39.839 48.5946 39.7387 47.1504 39.2974 45.8265C38.8963 44.5026 38.1741 43.4595 37.1311 42.6973C36.088 41.8949 34.7842 41.4937 33.2195 41.4937C31.8154 41.4937 30.4514 41.8748 29.1275 42.6371C27.8036 43.3993 26.6602 44.4424 25.6974 45.7663C24.7747 47.0501 24.193 48.5144 23.9523 50.1592C23.7517 51.6837 23.852 53.1079 24.2531 54.4318C24.6944 55.7156 25.3965 56.7587 26.3593 57.561C27.3222 58.3634 28.4856 58.7846 29.8496 58.8248C31.4142 58.8649 32.8785 58.5038 34.2426 57.7416C35.6467 56.9793 36.8302 55.9363 37.793 54.6124C38.7559 53.2885 39.3576 51.8041 39.5983 50.1592ZM58.1517 21.8759H66.2155L59.7163 51.2424H54.6614L58.1517 21.8759ZM51.2313 61.0513C51.2313 59.8879 51.6325 58.9251 52.4349 58.1628C53.2774 57.4006 54.3004 57.0194 55.5039 57.0194C56.7075 57.0194 57.7104 57.4006 58.5128 58.1628C59.3151 58.9251 59.7163 59.8879 59.7163 61.0513C59.7163 62.1746 59.3151 63.1375 58.5128 63.9398C57.7104 64.7422 56.7075 65.1434 55.5039 65.1434C54.3004 65.1434 53.2774 64.7422 52.4349 63.9398C51.6325 63.1375 51.2313 62.1746 51.2313 61.0513Z" fill="#E3E3E3"/>
<circle cx="39" cy="48" r="36" stroke="#E3E3E3" stroke-width="6"/>
<path d="M97.4301 45.3185H101.823L103.448 35.6901H109.887L108.202 45.3185H112.775L111.752 51.0353H107.239L103.388 73H97.1292L100.86 51.0353H96.4071L97.4301 45.3185ZM118.415 34.306C118.415 33.1827 118.816 32.26 119.619 31.5379C120.421 30.7757 121.384 30.3945 122.507 30.3945C123.671 30.3945 124.633 30.7757 125.396 31.5379C126.198 32.26 126.599 33.1827 126.599 34.306C126.599 35.4294 126.198 36.3721 125.396 37.1344C124.633 37.8565 123.671 38.2176 122.507 38.2176C121.384 38.2176 120.421 37.8565 119.619 37.1344C118.816 36.3721 118.415 35.4294 118.415 34.306ZM117.392 45.3185H123.831L119.137 73H112.758L117.392 45.3185ZM127.912 59.1592C128.313 56.4312 129.236 53.984 130.68 51.8176C132.164 49.6111 134.01 47.866 136.216 46.5822C138.423 45.2984 140.79 44.6766 143.317 44.7167C145.443 44.7167 147.189 45.2583 148.553 46.3415C149.957 47.3846 151 48.7486 151.682 50.4335L155.834 26.0618H162.333L154.269 73H147.83L148.553 68.7274C147.349 70.2118 145.925 71.3953 144.28 72.2779C142.635 73.1605 140.83 73.6018 138.864 73.6018C136.337 73.6018 134.19 72.9398 132.425 71.6159C130.66 70.292 129.376 68.5469 128.574 66.3805C127.771 64.174 127.551 61.7669 127.912 59.1592ZM134.531 59.1592C134.291 60.7238 134.391 62.1681 134.832 63.492C135.273 64.8159 135.996 65.8991 136.999 66.7416C138.042 67.5439 139.345 67.9451 140.91 67.9451C142.354 67.9451 143.718 67.564 145.002 66.8017C146.326 65.9994 147.449 64.9363 148.372 63.6124C149.335 62.2885 149.937 60.8041 150.177 59.1592C150.378 57.5946 150.258 56.1704 149.816 54.8867C149.415 53.5628 148.733 52.4996 147.77 51.6973C146.848 50.8548 145.684 50.4135 144.28 50.3734C142.715 50.3332 141.231 50.7144 139.827 51.5167C138.463 52.279 137.299 53.3421 136.337 54.7061C135.414 56.03 134.812 57.5144 134.531 59.1592ZM162.232 59.1592C162.633 56.4312 163.555 53.984 165 51.8176C166.484 49.6111 168.33 47.886 170.536 46.6424C172.743 45.3586 175.109 44.7167 177.637 44.7167C179.843 44.7167 181.649 45.2784 183.053 46.4017C184.457 47.525 185.48 48.9692 186.122 50.7344L187.025 45.3185H193.403L188.589 73H182.391L183.173 68.3664C181.97 69.9711 180.505 71.2549 178.78 72.2177C177.095 73.1404 175.23 73.6018 173.184 73.6018C170.656 73.6018 168.51 72.9398 166.745 71.6159C164.98 70.292 163.696 68.5469 162.894 66.3805C162.091 64.174 161.871 61.7669 162.232 59.1592ZM168.851 59.1592C168.61 60.7238 168.711 62.1681 169.152 63.492C169.593 64.8159 170.315 65.8991 171.318 66.7416C172.361 67.5439 173.665 67.9451 175.23 67.9451C176.674 67.9451 178.038 67.564 179.322 66.8017C180.646 65.9994 181.769 64.9363 182.692 63.6124C183.655 62.2885 184.256 60.8041 184.497 59.1592C184.698 57.5946 184.577 56.1704 184.136 54.8867C183.735 53.5628 183.053 52.4996 182.09 51.6973C181.167 50.8548 180.004 50.4135 178.6 50.3734C177.035 50.3332 175.551 50.7144 174.147 51.5167C172.783 52.279 171.619 53.3421 170.656 54.7061C169.734 56.03 169.132 57.5144 168.851 59.1592ZM216.651 45.3185H224.835L210.874 57.1132L220.923 73H213.461L204.735 58.9185L202.328 73H196.07L204.013 26.0618H210.392L205.458 54.7663L216.651 45.3185ZM243.389 59.1592C243.79 56.4312 244.712 53.984 246.157 51.8176C247.641 49.6111 249.486 47.886 251.693 46.6424C253.899 45.3586 256.266 44.7167 258.794 44.7167C261 44.7167 262.806 45.2784 264.21 46.4017C265.614 47.525 266.637 48.9692 267.279 50.7344L268.182 45.3185H274.56L269.746 73H263.548L264.33 68.3664C263.127 69.9711 261.662 71.2549 259.937 72.2177C258.252 73.1404 256.387 73.6018 254.341 73.6018C251.813 73.6018 249.667 72.9398 247.902 71.6159C246.137 70.292 244.853 68.5469 244.05 66.3805C243.248 64.174 243.027 61.7669 243.389 59.1592ZM250.008 59.1592C249.767 60.7238 249.868 62.1681 250.309 63.492C250.75 64.8159 251.472 65.8991 252.475 66.7416C253.518 67.5439 254.822 67.9451 256.387 67.9451C257.831 67.9451 259.195 67.564 260.479 66.8017C261.803 65.9994 262.926 64.9363 263.849 63.6124C264.812 62.2885 265.413 60.8041 265.654 59.1592C265.855 57.5946 265.734 56.1704 265.293 54.8867C264.892 53.5628 264.21 52.4996 263.247 51.6973C262.324 50.8548 261.161 50.4135 259.757 50.3734C258.192 50.3332 256.708 50.7144 255.304 51.5167C253.94 52.279 252.776 53.3421 251.813 54.7061C250.891 56.03 250.289 57.5144 250.008 59.1592ZM277.708 59.1592C278.11 56.4312 279.032 53.984 280.477 51.8176C281.961 49.6111 283.806 47.866 286.013 46.5822C288.219 45.2984 290.586 44.6766 293.114 44.7167C295.24 44.7167 296.985 45.2583 298.349 46.3415C299.753 47.3846 300.796 48.7486 301.478 50.4335L305.631 26.0618H312.13L304.066 73H297.627L298.349 68.7274C297.146 70.2118 295.721 71.3953 294.077 72.2779C292.432 73.1605 290.626 73.6018 288.661 73.6018C286.133 73.6018 283.987 72.9398 282.222 71.6159C280.456 70.292 279.173 68.5469 278.37 66.3805C277.568 64.174 277.347 61.7669 277.708 59.1592ZM284.328 59.1592C284.087 60.7238 284.187 62.1681 284.629 63.492C285.07 64.8159 285.792 65.8991 286.795 66.7416C287.838 67.5439 289.142 67.9451 290.707 67.9451C292.151 67.9451 293.515 67.564 294.799 66.8017C296.123 65.9994 297.246 64.9363 298.169 63.6124C299.131 62.2885 299.733 60.8041 299.974 59.1592C300.175 57.5946 300.054 56.1704 299.613 54.8867C299.212 53.5628 298.53 52.4996 297.567 51.6973C296.644 50.8548 295.481 50.4135 294.077 50.3734C292.512 50.3332 291.028 50.7144 289.623 51.5167C288.259 52.279 287.096 53.3421 286.133 54.7061C285.21 56.03 284.609 57.5144 284.328 59.1592ZM312.028 59.1592C312.429 56.4312 313.352 53.984 314.796 51.8176C316.281 49.6111 318.126 47.886 320.333 46.6424C322.539 45.3586 324.906 44.7167 327.434 44.7167C329.64 44.7167 331.445 45.2784 332.85 46.4017C334.254 47.525 335.277 48.9692 335.919 50.7344L336.821 45.3185H343.2L338.386 73H332.188L332.97 68.3664C331.766 69.9711 330.302 71.2549 328.577 72.2177C326.892 73.1404 325.026 73.6018 322.98 73.6018C320.453 73.6018 318.307 72.9398 316.541 71.6159C314.776 70.292 313.492 68.5469 312.69 66.3805C311.888 64.174 311.667 61.7669 312.028 59.1592ZM318.648 59.1592C318.407 60.7238 318.507 62.1681 318.949 63.492C319.39 64.8159 320.112 65.8991 321.115 66.7416C322.158 67.5439 323.462 67.9451 325.026 67.9451C326.471 67.9451 327.835 67.564 329.119 66.8017C330.442 65.9994 331.566 64.9363 332.488 63.6124C333.451 62.2885 334.053 60.8041 334.294 59.1592C334.494 57.5946 334.374 56.1704 333.933 54.8867C333.532 53.5628 332.85 52.4996 331.887 51.6973C330.964 50.8548 329.801 50.4135 328.396 50.3734C326.832 50.3332 325.347 50.7144 323.943 51.5167C322.579 52.279 321.416 53.3421 320.453 54.7061C319.53 56.03 318.929 57.5144 318.648 59.1592ZM372.092 26.0618H378.591L370.467 73H364.149L372.092 26.0618ZM378.729 59.1592C379.13 56.4312 380.052 53.984 381.497 51.8176C382.981 49.6111 384.826 47.886 387.033 46.6424C389.239 45.3586 391.606 44.7167 394.134 44.7167C396.34 44.7167 398.146 45.2784 399.55 46.4017C400.954 47.525 401.977 48.9692 402.619 50.7344L403.522 45.3185H409.9L405.086 73H398.888L399.67 68.3664C398.467 69.9711 397.002 71.2549 395.277 72.2177C393.592 73.1404 391.727 73.6018 389.681 73.6018C387.153 73.6018 385.007 72.9398 383.242 71.6159C381.477 70.292 380.193 68.5469 379.39 66.3805C378.588 64.174 378.367 61.7669 378.729 59.1592ZM385.348 59.1592C385.107 60.7238 385.208 62.1681 385.649 63.492C386.09 64.8159 386.812 65.8991 387.815 66.7416C388.858 67.5439 390.162 67.9451 391.727 67.9451C393.171 67.9451 394.535 67.564 395.819 66.8017C397.143 65.9994 398.266 64.9363 399.189 63.6124C400.152 62.2885 400.753 60.8041 400.994 59.1592C401.195 57.5946 401.074 56.1704 400.633 54.8867C400.232 53.5628 399.55 52.4996 398.587 51.6973C397.664 50.8548 396.501 50.4135 395.097 50.3734C393.532 50.3332 392.048 50.7144 390.644 51.5167C389.28 52.279 388.116 53.3421 387.153 54.7061C386.231 56.03 385.629 57.5144 385.348 59.1592ZM416.779 86.239H410.16L417.261 45.3185H423.64L422.917 49.7716C424.081 48.207 425.485 46.9633 427.13 46.0406C428.815 45.0778 430.68 44.5964 432.726 44.5964C435.294 44.5964 437.44 45.2583 439.165 46.5822C440.93 47.9061 442.194 49.6713 442.956 51.8778C443.759 54.0843 443.979 56.5114 443.618 59.1592C443.257 61.9274 442.335 64.4147 440.85 66.6212C439.366 68.8277 437.52 70.5729 435.314 71.8566C433.148 73.1003 430.781 73.7221 428.213 73.7221C426.007 73.7221 424.221 73.1805 422.857 72.0973C421.493 70.974 420.49 69.5498 419.848 67.8248L416.779 86.239ZM436.999 59.1592C437.24 57.5946 437.139 56.1504 436.698 54.8265C436.297 53.5026 435.575 52.4595 434.532 51.6973C433.489 50.8949 432.185 50.4937 430.62 50.4937C429.216 50.4937 427.852 50.8748 426.528 51.6371C425.204 52.3993 424.061 53.4424 423.098 54.7663C422.175 56.0501 421.594 57.5144 421.353 59.1592C421.152 60.6837 421.253 62.1079 421.654 63.4318C422.095 64.7156 422.797 65.7587 423.76 66.561C424.723 67.3634 425.886 67.7846 427.25 67.8248C428.815 67.8649 430.279 67.5038 431.643 66.7416C433.047 65.9793 434.231 64.9363 435.194 63.6124C436.156 62.2885 436.758 60.8041 436.999 59.1592ZM447.729 59.1592C448.09 56.4312 449.053 53.984 450.618 51.8176C452.222 49.6111 454.208 47.886 456.575 46.6424C458.982 45.3586 461.57 44.7167 464.338 44.7167C467.106 44.7167 469.493 45.3787 471.499 46.7026C473.505 47.9863 474.99 49.7315 475.952 51.938C476.915 54.1044 477.216 56.5114 476.855 59.1592C476.494 61.8873 475.511 64.3545 473.906 66.561C472.342 68.7274 470.376 70.4525 468.009 71.7363C465.642 72.9799 463.054 73.6018 460.246 73.6018C457.518 73.6018 455.131 72.9599 453.085 71.6761C451.079 70.3522 449.595 68.6071 448.632 66.4407C447.669 64.2342 447.368 61.807 447.729 59.1592ZM454.289 59.1592C454.088 60.6436 454.188 62.0477 454.589 63.3716C455.031 64.6955 455.773 65.7787 456.816 66.6212C457.859 67.4236 459.163 67.8248 460.728 67.8248C462.332 67.8248 463.797 67.4436 465.12 66.6814C466.484 65.879 467.608 64.8159 468.49 63.492C469.413 62.1681 469.995 60.7238 470.236 59.1592C470.476 57.6347 470.376 56.2306 469.935 54.9468C469.493 53.6229 468.751 52.5598 467.708 51.7574C466.665 50.915 465.361 50.4937 463.797 50.4937C462.232 50.4937 460.768 50.8949 459.404 51.6973C458.04 52.4595 456.896 53.5026 455.974 54.8265C455.091 56.1103 454.529 57.5545 454.289 59.1592ZM498.031 52.299C497.51 51.8577 496.988 51.4967 496.467 51.2158C495.985 50.935 495.404 50.7946 494.722 50.7946C493.237 50.7545 492.034 51.256 491.111 52.299C490.228 53.3421 489.586 54.5858 489.185 56.03L486.237 73H479.858L484.672 45.3185H491.051L490.509 48.4477C491.392 47.3645 492.395 46.4819 493.518 45.7999C494.641 45.0778 495.825 44.7167 497.068 44.7167C498.031 44.7167 498.914 44.9173 499.716 45.3185C500.519 45.6795 501.241 46.2011 501.883 46.8831L498.031 52.299ZM501.022 59.1592C501.423 56.4312 502.346 53.984 503.79 51.8176C505.275 49.6111 507.12 47.886 509.327 46.6424C511.533 45.3586 513.9 44.7167 516.428 44.7167C518.634 44.7167 520.439 45.2784 521.844 46.4017C523.248 47.525 524.271 48.9692 524.913 50.7344L525.815 45.3185H532.194L527.38 73H521.182L521.964 68.3664C520.76 69.9711 519.296 71.2549 517.571 72.2177C515.886 73.1404 514.021 73.6018 511.975 73.6018C509.447 73.6018 507.301 72.9398 505.536 71.6159C503.77 70.292 502.487 68.5469 501.684 66.3805C500.882 64.174 500.661 61.7669 501.022 59.1592ZM507.642 59.1592C507.401 60.7238 507.501 62.1681 507.943 63.492C508.384 64.8159 509.106 65.8991 510.109 66.7416C511.152 67.5439 512.456 67.9451 514.021 67.9451C515.465 67.9451 516.829 67.564 518.113 66.8017C519.436 65.9994 520.56 64.9363 521.483 63.6124C522.445 62.2885 523.047 60.8041 523.288 59.1592C523.488 57.5946 523.368 56.1704 522.927 54.8867C522.526 53.5628 521.844 52.4996 520.881 51.6973C519.958 50.8548 518.795 50.4135 517.39 50.3734C515.826 50.3332 514.341 50.7144 512.937 51.5167C511.573 52.279 510.41 53.3421 509.447 54.7061C508.524 56.03 507.923 57.5144 507.642 59.1592ZM555.321 56.1504C555.522 54.5055 555.381 53.0813 554.9 51.8778C554.418 50.6341 553.275 50.0123 551.47 50.0123C549.664 50.0123 548.1 50.574 546.776 51.6973C545.492 52.8206 544.71 54.2448 544.429 55.9698L541.48 73H534.981L539.795 45.3185H546.234L545.572 49.4105C546.575 47.9663 547.779 46.8229 549.183 45.9804C550.627 45.1379 552.272 44.7167 554.117 44.7167C556.244 44.7167 557.929 45.1981 559.172 46.161C560.416 47.1238 561.258 48.4276 561.7 50.0725C562.141 51.6772 562.221 53.4625 561.94 55.4283L558.932 73H552.312L555.321 56.1504Z" fill="#E3E3E3"/>
</svg>
