<svg width="565" height="96" fill="none" xmlns="http://www.w3.org/2000/svg"><path d="M19.3788 77.239h-6.6195l7.1009-40.9205h6.3788l-.7221 4.4531c1.1634-1.5646 2.5675-2.8083 4.2124-3.731 1.6849-.9628 3.5504-1.4442 5.5964-1.4442 2.5676 0 4.7139.6619 6.439 1.9858 1.7652 1.3239 3.0289 3.0891 3.7912 5.2956.8023 2.2065 1.023 4.6336.6619 7.2814-.361 2.7682-1.2838 5.2555-2.7681 7.462-1.4844 2.2065-3.3298 3.9517-5.5363 5.2354-2.1664 1.2437-4.5334 1.8655-7.1009 1.8655-2.2065 0-3.9918-.5416-5.3558-1.6248-1.364-1.1233-2.367-2.5475-3.0089-4.2725l-3.069 18.4142zm20.2195-27.0798c.2407-1.5646.1404-3.0088-.3009-4.3327-.4011-1.3239-1.1233-2.367-2.1663-3.1292-1.0431-.8024-2.3469-1.2036-3.9116-1.2036-1.4041 0-2.7681.3811-4.092 1.1434-1.3239.7622-2.4673 1.8053-3.4301 3.1292-.9227 1.2838-1.5044 2.7481-1.7451 4.3929-.2006 1.5245-.1003 2.9487.3008 4.2726.4413 1.2838 1.1434 2.3269 2.1062 3.1292.9629.8024 2.1263 1.2236 3.4903 1.2638 1.5646.0401 3.0289-.321 4.393-1.0832 1.4041-.7623 2.5876-1.8053 3.5504-3.1292.9629-1.3239 1.5646-2.8083 1.8053-4.4532zm18.5534-28.2833h8.0638l-6.4992 29.3665h-5.0549l3.4903-29.3665zm-6.9204 39.1754c0-1.1634.4012-2.1262 1.2036-2.8885.8425-.7622 1.8655-1.1434 3.069-1.1434 1.2036 0 2.2065.3812 3.0089 1.1434.8023.7623 1.2035 1.7251 1.2035 2.8885 0 1.1233-.4012 2.0862-1.2035 2.8885-.8024.8024-1.8053 1.2036-3.0089 1.2036-1.2035 0-2.2265-.4012-3.069-1.2036-.8024-.8023-1.2036-1.7652-1.2036-2.8885z" fill="#E3E3E3"/><circle cx="39" cy="48" r="36" stroke="#E3E3E3" stroke-width="6"/><path d="M97.4301 45.3185h4.3929l1.625-9.6284h6.439l-1.685 9.6284h4.573l-1.023 5.7168h-4.513L103.388 73h-6.2588l3.7308-21.9647h-4.4529l1.023-5.7168zM118.415 34.306c0-1.1233.401-2.046 1.204-2.7681.802-.7622 1.765-1.1434 2.888-1.1434 1.164 0 2.126.3812 2.889 1.1434.802.7221 1.203 1.6448 1.203 2.7681 0 1.1234-.401 2.0661-1.203 2.8284-.763.7221-1.725 1.0832-2.889 1.0832-1.123 0-2.086-.3611-2.888-1.0832-.803-.7623-1.204-1.705-1.204-2.8284zm-1.023 11.0125h6.439L119.137 73h-6.379l4.634-27.6815zm10.52 13.8407c.401-2.728 1.324-5.1752 2.768-7.3416 1.484-2.2065 3.33-3.9516 5.536-5.2354 2.207-1.2838 4.574-1.9056 7.101-1.8655 2.126 0 3.872.5416 5.236 1.6248 1.404 1.0431 2.447 2.4071 3.129 4.092l4.152-24.3717h6.499L154.269 73h-6.439l.723-4.2726c-1.204 1.4844-2.628 2.6679-4.273 3.5505-1.645.8826-3.45 1.3239-5.416 1.3239-2.527 0-4.674-.662-6.439-1.9859-1.765-1.3239-3.049-3.069-3.851-5.2354-.803-2.2065-1.023-4.6136-.662-7.2213zm6.619 0c-.24 1.5646-.14 3.0089.301 4.3328.441 1.3239 1.164 2.4071 2.167 3.2496 1.043.8023 2.346 1.2035 3.911 1.2035 1.444 0 2.808-.3811 4.092-1.1434 1.324-.8023 2.447-1.8654 3.37-3.1893.963-1.3239 1.565-2.8083 1.805-4.4532.201-1.5646.081-2.9888-.361-4.2725-.401-1.3239-1.083-2.3871-2.046-3.1894-.922-.8425-2.086-1.2838-3.49-1.3239-1.565-.0402-3.049.341-4.453 1.1433-1.364.7623-2.528 1.8254-3.49 3.1894-.923 1.3239-1.525 2.8083-1.806 4.4531zm27.701 0c.401-2.728 1.323-5.1752 2.768-7.3416 1.484-2.2065 3.33-3.9316 5.536-5.1752 2.207-1.2838 4.573-1.9257 7.101-1.9257 2.206 0 4.012.5617 5.416 1.685 1.404 1.1233 2.427 2.5675 3.069 4.3327l.903-5.4159h6.378L188.589 73h-6.198l.782-4.6336c-1.203 1.6047-2.668 2.8885-4.393 3.8513-1.685.9227-3.55 1.3841-5.596 1.3841-2.528 0-4.674-.662-6.439-1.9859-1.765-1.3239-3.049-3.069-3.851-5.2354-.803-2.2065-1.023-4.6136-.662-7.2213zm6.619 0c-.241 1.5646-.14 3.0089.301 4.3328.441 1.3239 1.163 2.4071 2.166 3.2496 1.043.8023 2.347 1.2035 3.912 1.2035 1.444 0 2.808-.3811 4.092-1.1434 1.324-.8023 2.447-1.8654 3.37-3.1893.963-1.3239 1.564-2.8083 1.805-4.4532.201-1.5646.08-2.9888-.361-4.2725-.401-1.3239-1.083-2.3871-2.046-3.1894-.923-.8425-2.086-1.2838-3.49-1.3239-1.565-.0402-3.049.341-4.453 1.1433-1.364.7623-2.528 1.8254-3.491 3.1894-.922 1.3239-1.524 2.8083-1.805 4.4531zm47.8-13.8407h8.184l-13.961 11.7947L220.923 73h-7.462l-8.726-14.0815L202.328 73h-6.258l7.943-46.9382h6.379l-4.934 28.7045 11.193-9.4478zm26.738 13.8407c.401-2.728 1.323-5.1752 2.768-7.3416 1.484-2.2065 3.329-3.9316 5.536-5.1752 2.206-1.2838 4.573-1.9257 7.101-1.9257 2.206 0 4.012.5617 5.416 1.685 1.404 1.1233 2.427 2.5675 3.069 4.3327l.903-5.4159h6.378L269.746 73h-6.198l.782-4.6336c-1.203 1.6047-2.668 2.8885-4.393 3.8513-1.685.9227-3.55 1.3841-5.596 1.3841-2.528 0-4.674-.662-6.439-1.9859-1.765-1.3239-3.049-3.069-3.852-5.2354-.802-2.2065-1.023-4.6136-.661-7.2213zm6.619 0c-.241 1.5646-.14 3.0089.301 4.3328.441 1.3239 1.163 2.4071 2.166 3.2496 1.043.8023 2.347 1.2035 3.912 1.2035 1.444 0 2.808-.3811 4.092-1.1434 1.324-.8023 2.447-1.8654 3.37-3.1893.963-1.3239 1.564-2.8083 1.805-4.4532.201-1.5646.08-2.9888-.361-4.2725-.401-1.3239-1.083-2.3871-2.046-3.1894-.923-.8425-2.086-1.2838-3.49-1.3239-1.565-.0402-3.049.341-4.453 1.1433-1.364.7623-2.528 1.8254-3.491 3.1894-.922 1.3239-1.524 2.8083-1.805 4.4531zm27.7 0c.402-2.728 1.324-5.1752 2.769-7.3416 1.484-2.2065 3.329-3.9516 5.536-5.2354 2.206-1.2838 4.573-1.9056 7.101-1.8655 2.126 0 3.871.5416 5.235 1.6248 1.404 1.0431 2.447 2.4071 3.129 4.092l4.153-24.3717h6.499L304.066 73h-6.439l.722-4.2726c-1.203 1.4844-2.628 2.6679-4.272 3.5505-1.645.8826-3.451 1.3239-5.416 1.3239-2.528 0-4.674-.662-6.439-1.9859-1.766-1.3239-3.049-3.069-3.852-5.2354-.802-2.2065-1.023-4.6136-.662-7.2213zm6.62 0c-.241 1.5646-.141 3.0089.301 4.3328.441 1.3239 1.163 2.4071 2.166 3.2496 1.043.8023 2.347 1.2035 3.912 1.2035 1.444 0 2.808-.3811 4.092-1.1434 1.324-.8023 2.447-1.8654 3.37-3.1893.962-1.3239 1.564-2.8083 1.805-4.4532.201-1.5646.08-2.9888-.361-4.2725-.401-1.3239-1.083-2.3871-2.046-3.1894-.923-.8425-2.086-1.2838-3.49-1.3239-1.565-.0402-3.049.341-4.454 1.1433-1.364.7623-2.527 1.8254-3.49 3.1894-.923 1.3239-1.524 2.8083-1.805 4.4531zm27.7 0c.401-2.728 1.324-5.1752 2.768-7.3416 1.485-2.2065 3.33-3.9316 5.537-5.1752 2.206-1.2838 4.573-1.9257 7.101-1.9257 2.206 0 4.011.5617 5.416 1.685 1.404 1.1233 2.427 2.5675 3.069 4.3327l.902-5.4159h6.379L338.386 73h-6.198l.782-4.6336c-1.204 1.6047-2.668 2.8885-4.393 3.8513-1.685.9227-3.551 1.3841-5.597 1.3841-2.527 0-4.673-.662-6.439-1.9859-1.765-1.3239-3.049-3.069-3.851-5.2354-.802-2.2065-1.023-4.6136-.662-7.2213zm6.62 0c-.241 1.5646-.141 3.0089.301 4.3328.441 1.3239 1.163 2.4071 2.166 3.2496 1.043.8023 2.347 1.2035 3.911 1.2035 1.445 0 2.809-.3811 4.093-1.1434 1.323-.8023 2.447-1.8654 3.369-3.1893.963-1.3239 1.565-2.8083 1.806-4.4532.2-1.5646.08-2.9888-.361-4.2725-.401-1.3239-1.083-2.3871-2.046-3.1894-.923-.8425-2.086-1.2838-3.491-1.3239-1.564-.0402-3.049.341-4.453 1.1433-1.364.7623-2.527 1.8254-3.49 3.1894-.923 1.3239-1.524 2.8083-1.805 4.4531zm53.444-33.0974h6.499L370.467 73h-6.318l7.943-46.9382zm6.637 33.0974c.401-2.728 1.323-5.1752 2.768-7.3416 1.484-2.2065 3.329-3.9316 5.536-5.1752 2.206-1.2838 4.573-1.9257 7.101-1.9257 2.206 0 4.012.5617 5.416 1.685 1.404 1.1233 2.427 2.5675 3.069 4.3327l.903-5.4159h6.378L405.086 73h-6.198l.782-4.6336c-1.203 1.6047-2.668 2.8885-4.393 3.8513-1.685.9227-3.55 1.3841-5.596 1.3841-2.528 0-4.674-.662-6.439-1.9859-1.765-1.3239-3.049-3.069-3.852-5.2354-.802-2.2065-1.023-4.6136-.661-7.2213zm6.619 0c-.241 1.5646-.14 3.0089.301 4.3328.441 1.3239 1.163 2.4071 2.166 3.2496 1.043.8023 2.347 1.2035 3.912 1.2035 1.444 0 2.808-.3811 4.092-1.1434 1.324-.8023 2.447-1.8654 3.37-3.1893.963-1.3239 1.564-2.8083 1.805-4.4532.201-1.5646.08-2.9888-.361-4.2725-.401-1.3239-1.083-2.3871-2.046-3.1894-.923-.8425-2.086-1.2838-3.49-1.3239-1.565-.0402-3.049.341-4.453 1.1433-1.364.7623-2.528 1.8254-3.491 3.1894-.922 1.3239-1.524 2.8083-1.805 4.4531zm31.431 27.0798h-6.619l7.101-40.9205h6.379l-.723 4.4531c1.164-1.5646 2.568-2.8083 4.213-3.731 1.685-.9628 3.55-1.4442 5.596-1.4442 2.568 0 4.714.6619 6.439 1.9858 1.765 1.3239 3.029 3.0891 3.791 5.2956.803 2.2065 1.023 4.6336.662 7.2814-.361 2.7682-1.283 5.2555-2.768 7.462-1.484 2.2065-3.33 3.9517-5.536 5.2354-2.166 1.2437-4.533 1.8655-7.101 1.8655-2.206 0-3.992-.5416-5.356-1.6248-1.364-1.1233-2.367-2.5475-3.009-4.2725l-3.069 18.4142zm20.22-27.0798c.241-1.5646.14-3.0088-.301-4.3327-.401-1.3239-1.123-2.367-2.166-3.1292-1.043-.8024-2.347-1.2036-3.912-1.2036-1.404 0-2.768.3811-4.092 1.1434-1.324.7622-2.467 1.8053-3.43 3.1292-.923 1.2838-1.504 2.7481-1.745 4.3929-.201 1.5245-.1 2.9487.301 4.2726.441 1.2838 1.143 2.3269 2.106 3.1292.963.8024 2.126 1.2236 3.49 1.2638 1.565.0401 3.029-.321 4.393-1.0832 1.404-.7623 2.588-1.8053 3.551-3.1292.962-1.3239 1.564-2.8083 1.805-4.4532zm10.73 0c.361-2.728 1.324-5.1752 2.889-7.3416 1.604-2.2065 3.59-3.9316 5.957-5.1752 2.407-1.2838 4.995-1.9257 7.763-1.9257s5.155.662 7.161 1.9859c2.006 1.2837 3.491 3.0289 4.453 5.2354.963 2.1664 1.264 4.5734.903 7.2212-.361 2.7281-1.344 5.1953-2.949 7.4018-1.564 2.1664-3.53 3.8915-5.897 5.1753-2.367 1.2436-4.955 1.8655-7.763 1.8655-2.728 0-5.115-.6419-7.161-1.9257-2.006-1.3239-3.49-3.069-4.453-5.2354-.963-2.2065-1.264-4.6337-.903-7.2815zm6.56 0c-.201 1.4844-.101 2.8885.3 4.2124.442 1.3239 1.184 2.4071 2.227 3.2496 1.043.8024 2.347 1.2036 3.912 1.2036 1.604 0 3.069-.3812 4.392-1.1434 1.364-.8024 2.488-1.8655 3.37-3.1894.923-1.3239 1.505-2.7682 1.746-4.3328.24-1.5245.14-2.9286-.301-4.2124-.442-1.3239-1.184-2.387-2.227-3.1894-1.043-.8424-2.347-1.2637-3.911-1.2637-1.565 0-3.029.4012-4.393 1.2036-1.364.7622-2.508 1.8053-3.43 3.1292-.883 1.2838-1.445 2.728-1.685 4.3327zm43.742-6.8602c-.521-.4413-1.043-.8023-1.564-1.0832-.482-.2808-1.063-.4212-1.745-.4212-1.485-.0401-2.688.4614-3.611 1.5044-.883 1.0431-1.525 2.2868-1.926 3.731L486.237 73h-6.379l4.814-27.6815h6.379l-.542 3.1292c.883-1.0832 1.886-1.9658 3.009-2.6478 1.123-.7221 2.307-1.0832 3.55-1.0832.963 0 1.846.2006 2.648.6018.803.361 1.525.8826 2.167 1.5646l-3.852 5.4159zm2.991 6.8602c.401-2.728 1.324-5.1752 2.768-7.3416 1.485-2.2065 3.33-3.9316 5.537-5.1752 2.206-1.2838 4.573-1.9257 7.101-1.9257 2.206 0 4.011.5617 5.416 1.685 1.404 1.1233 2.427 2.5675 3.069 4.3327l.902-5.4159h6.379L527.38 73h-6.198l.782-4.6336c-1.204 1.6047-2.668 2.8885-4.393 3.8513-1.685.9227-3.55 1.3841-5.596 1.3841-2.528 0-4.674-.662-6.439-1.9859-1.766-1.3239-3.049-3.069-3.852-5.2354-.802-2.2065-1.023-4.6136-.662-7.2213zm6.62 0c-.241 1.5646-.141 3.0089.301 4.3328.441 1.3239 1.163 2.4071 2.166 3.2496 1.043.8023 2.347 1.2035 3.912 1.2035 1.444 0 2.808-.3811 4.092-1.1434 1.323-.8023 2.447-1.8654 3.37-3.1893.962-1.3239 1.564-2.8083 1.805-4.4532.2-1.5646.08-2.9888-.361-4.2725-.401-1.3239-1.083-2.3871-2.046-3.1894-.923-.8425-2.086-1.2838-3.491-1.3239-1.564-.0402-3.049.341-4.453 1.1433-1.364.7623-2.527 1.8254-3.49 3.1894-.923 1.3239-1.524 2.8083-1.805 4.4531zm47.679-3.0088c.201-1.6449.06-3.0691-.421-4.2726-.482-1.2437-1.625-1.8655-3.43-1.8655-1.806 0-3.37.5617-4.694 1.685-1.284 1.1233-2.066 2.5475-2.347 4.2725L541.48 73h-6.499l4.814-27.6815h6.439l-.662 4.092c1.003-1.4442 2.207-2.5876 3.611-3.4301 1.444-.8425 3.089-1.2637 4.934-1.2637 2.127 0 3.812.4814 5.055 1.4443 1.244.9628 2.086 2.2666 2.528 3.9115.441 1.6047.521 3.39.24 5.3558L558.932 73h-6.62l3.009-16.8496z" fill="#E3E3E3"/></svg>