<svg width="495" height="166" fill="none" xmlns="http://www.w3.org/2000/svg"><path d="M19.3788 77.239h-6.6195l7.1009-40.9205h6.3788l-.7221 4.4531c1.1634-1.5646 2.5675-2.8083 4.2124-3.731 1.6849-.9628 3.5504-1.4442 5.5964-1.4442 2.5676 0 4.7139.6619 6.439 1.9858 1.7652 1.3239 3.0289 3.0891 3.7912 5.2956.8023 2.2065 1.023 4.6336.6619 7.2814-.361 2.7682-1.2838 5.2555-2.7681 7.462-1.4844 2.2065-3.3298 3.9517-5.5363 5.2354-2.1664 1.2437-4.5334 1.8655-7.1009 1.8655-2.2065 0-3.9918-.5416-5.3558-1.6248-1.364-1.1233-2.367-2.5475-3.0089-4.2725l-3.069 18.4142zm20.2195-27.0798c.2407-1.5646.1404-3.0088-.3009-4.3327-.4011-1.3239-1.1233-2.367-2.1663-3.1292-1.0431-.8024-2.3469-1.2036-3.9116-1.2036-1.4041 0-2.7681.3811-4.092 1.1434-1.3239.7622-2.4673 1.8053-3.4301 3.1292-.9227 1.2838-1.5044 2.7481-1.7451 4.3929-.2006 1.5245-.1003 2.9487.3008 4.2726.4413 1.2838 1.1434 2.3269 2.1062 3.1292.9629.8024 2.1263 1.2236 3.4903 1.2638 1.5646.0401 3.0289-.321 4.393-1.0832 1.4041-.7623 2.5876-1.8053 3.5504-3.1292.9629-1.3239 1.5646-2.8083 1.8053-4.4532zm18.5534-28.2833h8.0638l-6.4992 29.3665h-5.0549l3.4903-29.3665zm-6.9204 39.1754c0-1.1634.4012-2.1262 1.2036-2.8885.8425-.7622 1.8655-1.1434 3.069-1.1434 1.2036 0 2.2065.3812 3.0089 1.1434.8023.7623 1.2035 1.7251 1.2035 2.8885 0 1.1233-.4012 2.0862-1.2035 2.8885-.8024.8024-1.8053 1.2036-3.0089 1.2036-1.2035 0-2.2265-.4012-3.069-1.2036-.8024-.8023-1.2036-1.7652-1.2036-2.8885z" fill="#E3E3E3"/><circle cx="39" cy="48" r="36" stroke="#E3E3E3" stroke-width="6"/><path d="M84.3788 86.239h-6.6195l7.1009-40.9205h6.3788l-.7221 4.4531c1.1634-1.5646 2.5675-2.8083 4.2124-3.731 1.6849-.9628 3.5504-1.4442 5.5967-1.4442 2.567 0 4.714.6619 6.439 1.9858 1.765 1.3239 3.029 3.0891 3.791 5.2956.802 2.2065 1.023 4.6336.662 7.2814-.361 2.7682-1.284 5.2555-2.768 7.462-1.485 2.2065-3.33 3.9517-5.537 5.2354-2.166 1.2437-4.533 1.8655-7.1005 1.8655-2.2065 0-3.9918-.5416-5.3558-1.6248-1.364-1.1233-2.367-2.5475-3.0089-4.2725l-3.069 18.4142zm20.2192-27.0798c.241-1.5646.141-3.0088-.301-4.3327-.401-1.3239-1.123-2.367-2.166-3.1292-1.043-.8024-2.3468-1.2036-3.9115-1.2036-1.4041 0-2.7681.3811-4.092 1.1434-1.3239.7622-2.4673 1.8053-3.4301 3.1292-.9227 1.2838-1.5044 2.7481-1.7451 4.3929-.2006 1.5245-.1003 2.9487.3008 4.2726.4413 1.2838 1.1434 2.3269 2.1062 3.1292.9629.8024 2.1263 1.2236 3.4903 1.2638 1.5646.0401 3.0289-.321 4.393-1.0832 1.4044-.7623 2.5874-1.8053 3.5504-3.1292.963-1.3239 1.565-2.8083 1.805-4.4532zm13.258 4.8142c1.164 1.3239 2.387 2.4272 3.671 3.3098 1.284.8826 2.708 1.3038 4.273 1.2637 1.163 0 2.086-.321 2.768-.9628.722-.6419 1.083-1.4042 1.083-2.2868.04-1.2035-.502-2.1463-1.625-2.8283-1.123-.7221-2.347-1.344-3.671-1.8655-1.123-.4413-2.226-.9829-3.309-1.6248-1.044-.6419-1.906-1.4643-2.588-2.4673-.642-1.043-.943-2.3469-.903-3.9115.08-1.7652.582-3.2295 1.505-4.3929.922-1.1634 2.106-2.026 3.55-2.5876 1.484-.6018 3.049-.9027 4.694-.9027 2.247 0 4.212.4614 5.897 1.3841 1.725.9227 3.15 2.0861 4.273 3.4903l-3.611 3.7911c-.842-1.043-1.845-1.9256-3.009-2.6478-1.123-.7221-2.326-1.0832-3.61-1.0832-1.083 0-1.966.2407-2.648.7222-.642.4814-.963 1.1233-.963 1.9256-.04 1.0832.441 1.9257 1.444 2.5275 1.043.5616 2.247 1.1233 3.611 1.6849 1.364.5617 2.608 1.2036 3.731 1.9257 1.123.682 2.006 1.5446 2.648 2.5876.682 1.003 1.003 2.3068.963 3.9116-.081 2.5675-1.063 4.6938-2.949 6.3787-1.845 1.685-4.253 2.5275-7.221 2.5275-2.809 0-5.236-.6219-7.282-1.8655-2.046-1.2838-3.65-2.708-4.814-4.2726l4.092-3.731zm26.546 2.4673l6.319 1.9257-9.328 14.8637-4.754-1.3239 7.763-15.4655zM22.6266 126.15c.2006-1.644.0602-3.069-.4212-4.272-.4814-1.204-1.6047-1.826-3.3699-1.866-1.8455-.08-3.39.502-4.6337 1.745-1.2436 1.244-2.0661 2.628-2.4672 4.153L8.78587 143H2.28673l8.06377-46.9382h6.4991L12.8779 119.17c1.003-1.364 2.2065-2.467 3.6107-3.31 1.4442-.842 3.0891-1.264 4.9345-1.264 2.0861 0 3.731.482 4.9345 1.445 1.2437.922 2.0862 2.186 2.5275 3.791.4413 1.604.5215 3.41.2407 5.416L26.0567 143h-6.4389l3.0088-16.85zm11.6377 3.009c.4012-2.728 1.3239-5.175 2.7682-7.341 1.4844-2.207 3.3298-3.932 5.5363-5.176 2.2065-1.283 4.5735-1.925 7.1009-1.925 2.2065 0 4.0118.561 5.416 1.685 1.4041 1.123 2.4271 2.567 3.069 4.332l.9027-5.416h6.3787L60.622 143h-6.1983l.7823-4.634c-1.2035 1.605-2.6678 2.889-4.3929 3.852-1.685.922-3.5505 1.384-5.5965 1.384-2.5274 0-4.6738-.662-6.439-1.986-1.7652-1.324-3.0489-3.069-3.8513-5.235-.8024-2.207-1.023-4.614-.662-7.222zm6.6195 0c-.2407 1.565-.1404 3.009.3009 4.333.4413 1.324 1.1635 2.407 2.1664 3.25 1.0431.802 2.3469 1.203 3.9115 1.203 1.4443 0 2.8083-.381 4.0921-1.143 1.3239-.803 2.4472-1.866 3.3699-3.19.9628-1.324 1.5646-2.808 1.8053-4.453.2006-1.564.0803-2.989-.361-4.272-.4012-1.324-1.0832-2.387-2.0461-3.19-.9227-.842-2.0861-1.284-3.4903-1.324-1.5646-.04-3.0489.341-4.4531 1.144-1.364.762-2.5274 1.825-3.4902 3.189-.9228 1.324-1.5245 2.808-1.8054 4.453zm35.4031-33.0972h6.4991L74.6621 143h-6.3186l7.9434-46.9382zm6.6364 33.0972c.4011-2.728 1.3239-5.175 2.7681-7.341 1.4844-2.207 3.3298-3.932 5.5363-5.176 2.2065-1.283 4.5735-1.925 7.1009-1.925 2.2064 0 4.0114.561 5.4164 1.685 1.404 1.123 2.427 2.567 3.069 4.332l.902-5.416h6.379L109.281 143h-6.198l.782-4.634c-1.204 1.605-2.668 2.889-4.393 3.852-1.685.922-3.5505 1.384-5.5965 1.384-2.5274 0-4.6737-.662-6.4389-1.986-1.7652-1.324-3.049-3.069-3.8514-5.235-.8023-2.207-1.023-4.614-.6619-7.222zm6.6195 0c-.2407 1.565-.1405 3.009.3008 4.333.4413 1.324 1.1635 2.407 2.1664 3.25 1.0431.802 2.3469 1.203 3.9115 1.203 1.4443 0 2.8083-.381 4.0925-1.143 1.323-.803 2.447-1.866 3.37-3.19.962-1.324 1.564-2.808 1.805-4.453.2-1.564.08-2.989-.361-4.272-.401-1.324-1.083-2.387-2.046-3.19-.923-.842-2.086-1.284-3.4905-1.324-1.5646-.04-3.049.341-4.4531 1.144-1.3641.762-2.5275 1.825-3.4903 3.189-.9227 1.324-1.5245 2.808-1.8053 4.453zm68.9212-3.731L155.516 143h-6.499l3.009-16.85c.12-1.083.12-2.086 0-3.008-.081-.963-.382-1.726-.903-2.287-.482-.562-1.264-.843-2.347-.843-1.725 0-3.189.562-4.393 1.685-1.163 1.124-1.865 2.568-2.106 4.333L139.328 143h-6.439l2.949-16.85c.12-1.083.14-2.086.06-3.008-.08-.963-.381-1.726-.903-2.287-.481-.562-1.263-.843-2.347-.843-1.685 0-3.129.542-4.332 1.625-1.164 1.083-1.866 2.507-2.107 4.273L123.261 143h-6.379l4.814-27.682h6.259l-.602 3.852c.923-1.404 2.046-2.488 3.37-3.25 1.364-.802 2.908-1.203 4.633-1.203 2.046 0 3.611.481 4.694 1.444 1.124.963 1.866 2.206 2.227 3.731 1.083-1.565 2.407-2.808 3.972-3.731 1.564-.963 3.329-1.444 5.295-1.444 2.046 0 3.611.501 4.694 1.504 1.083.963 1.785 2.267 2.106 3.912.321 1.604.361 3.37.12 5.295zm5.264 3.731c.401-2.728 1.324-5.175 2.768-7.341 1.484-2.207 3.33-3.932 5.536-5.176 2.207-1.283 4.574-1.925 7.101-1.925 2.206 0 4.012.561 5.416 1.685 1.404 1.123 2.427 2.567 3.069 4.332l.903-5.416h6.378L190.085 143h-6.198l.782-4.634c-1.203 1.605-2.668 2.889-4.393 3.852-1.685.922-3.55 1.384-5.596 1.384-2.528 0-4.674-.662-6.439-1.986-1.765-1.324-3.049-3.069-3.851-5.235-.803-2.207-1.023-4.614-.662-7.222zm6.619 0c-.241 1.565-.14 3.009.301 4.333.441 1.324 1.163 2.407 2.166 3.25 1.043.802 2.347 1.203 3.912 1.203 1.444 0 2.808-.381 4.092-1.143 1.324-.803 2.447-1.866 3.37-3.19.963-1.324 1.564-2.808 1.805-4.453.201-1.564.08-2.989-.361-4.272-.401-1.324-1.083-2.387-2.046-3.19-.923-.842-2.086-1.284-3.49-1.324-1.565-.04-3.049.341-4.453 1.144-1.364.762-2.528 1.825-3.491 3.189-.922 1.324-1.524 2.808-1.805 4.453zm47.679-3.009c.201-1.644.06-3.069-.421-4.272-.481-1.244-1.625-1.866-3.43-1.866-1.805 0-3.37.562-4.694 1.685-1.284 1.124-2.066 2.548-2.347 4.273L204.186 143h-6.5l4.815-27.682h6.439l-.662 4.093c1.003-1.445 2.206-2.588 3.61-3.431 1.444-.842 3.089-1.263 4.935-1.263 2.126 0 3.811.481 5.055 1.444 1.243.963 2.086 2.267 2.527 3.911.441 1.605.522 3.39.241 5.356L221.637 143h-6.62l3.009-16.85zm30.638-10.832h4.393l1.625-9.628h6.439l-1.685 9.628h4.573l-1.023 5.717h-4.513L254.622 143h-6.259l3.731-21.965h-4.453l1.023-5.717zm20.985-11.012c0-1.123.401-2.046 1.203-2.768.803-.762 1.766-1.143 2.889-1.143 1.163 0 2.126.381 2.889 1.143.802.722 1.203 1.645 1.203 2.768 0 1.123-.401 2.066-1.203 2.828-.763.723-1.726 1.084-2.889 1.084-1.123 0-2.086-.361-2.889-1.084-.802-.762-1.203-1.705-1.203-2.828zm-1.023 11.012h6.439L270.371 143h-6.379l4.634-27.682zm10.52 13.841c.401-2.728 1.324-5.175 2.768-7.341 1.484-2.207 3.33-3.952 5.536-5.236 2.207-1.284 4.574-1.905 7.101-1.865 2.126 0 3.871.541 5.235 1.624 1.405 1.044 2.448 2.408 3.13 4.093l4.152-24.3722h6.499L305.503 143h-6.439l.722-4.273c-1.203 1.485-2.627 2.668-4.272 3.551-1.645.882-3.45 1.324-5.416 1.324-2.528 0-4.674-.662-6.439-1.986-1.765-1.324-3.049-3.069-3.851-5.235-.803-2.207-1.023-4.614-.662-7.222zm6.619 0c-.241 1.565-.14 3.009.301 4.333.441 1.324 1.163 2.407 2.166 3.25 1.043.802 2.347 1.203 3.912 1.203 1.444 0 2.808-.381 4.092-1.143 1.324-.803 2.447-1.866 3.37-3.19.963-1.324 1.565-2.808 1.805-4.453.201-1.564.08-2.989-.361-4.272-.401-1.324-1.083-2.387-2.046-3.19-.923-.842-2.086-1.284-3.49-1.324-1.565-.04-3.049.341-4.453 1.144-1.364.762-2.528 1.825-3.491 3.189-.922 1.324-1.524 2.808-1.805 4.453zm27.7 0c.402-2.728 1.324-5.175 2.769-7.341 1.484-2.207 3.329-3.932 5.536-5.176 2.206-1.283 4.573-1.925 7.101-1.925 2.206 0 4.012.561 5.416 1.685 1.404 1.123 2.427 2.567 3.069 4.332l.903-5.416h6.378L339.823 143h-6.198l.782-4.634c-1.203 1.605-2.668 2.889-4.393 3.852-1.685.922-3.55 1.384-5.596 1.384-2.528 0-4.674-.662-6.439-1.986-1.765-1.324-3.049-3.069-3.852-5.235-.802-2.207-1.023-4.614-.662-7.222zm6.62 0c-.241 1.565-.14 3.009.301 4.333.441 1.324 1.163 2.407 2.166 3.25 1.043.802 2.347 1.203 3.912 1.203 1.444 0 2.808-.381 4.092-1.143 1.324-.803 2.447-1.866 3.37-3.19.963-1.324 1.564-2.808 1.805-4.453.201-1.564.08-2.989-.361-4.272-.401-1.324-1.083-2.387-2.046-3.19-.923-.842-2.086-1.284-3.49-1.324-1.565-.04-3.049.341-4.453 1.144-1.364.762-2.528 1.825-3.491 3.189-.922 1.324-1.524 2.808-1.805 4.453zm47.8-13.841h8.184l-13.962 11.795L372.157 143h-7.462l-8.726-14.081L353.562 143h-6.258l7.943-46.9382h6.379l-4.934 28.7042 11.193-9.448zm26.737 13.841c.402-2.728 1.324-5.175 2.769-7.341 1.484-2.207 3.329-3.932 5.536-5.176 2.206-1.283 4.573-1.925 7.101-1.925 2.206 0 4.012.561 5.416 1.685 1.404 1.123 2.427 2.567 3.069 4.332l.902-5.416h6.379L420.98 143h-6.198l.782-4.634c-1.203 1.605-2.668 2.889-4.393 3.852-1.685.922-3.55 1.384-5.596 1.384-2.528 0-4.674-.662-6.439-1.986-1.765-1.324-3.049-3.069-3.852-5.235-.802-2.207-1.023-4.614-.662-7.222zm6.62 0c-.241 1.565-.14 3.009.301 4.333.441 1.324 1.163 2.407 2.166 3.25 1.043.802 2.347 1.203 3.912 1.203 1.444 0 2.808-.381 4.092-1.143 1.324-.803 2.447-1.866 3.37-3.19.963-1.324 1.564-2.808 1.805-4.453.201-1.564.08-2.989-.361-4.272-.401-1.324-1.083-2.387-2.046-3.19-.923-.842-2.086-1.284-3.49-1.324-1.565-.04-3.049.341-4.453 1.144-1.364.762-2.528 1.825-3.491 3.189-.922 1.324-1.524 2.808-1.805 4.453zm27.7 0c.401-2.728 1.324-5.175 2.768-7.341 1.485-2.207 3.33-3.952 5.537-5.236 2.206-1.284 4.573-1.905 7.101-1.865 2.126 0 3.871.541 5.235 1.624 1.404 1.044 2.447 2.408 3.129 4.093l4.153-24.3722h6.499L455.3 143h-6.439l.722-4.273c-1.203 1.485-2.628 2.668-4.273 3.551-1.644.882-3.45 1.324-5.415 1.324-2.528 0-4.674-.662-6.439-1.986-1.766-1.324-3.049-3.069-3.852-5.235-.802-2.207-1.023-4.614-.662-7.222zm6.62 0c-.241 1.565-.141 3.009.301 4.333.441 1.324 1.163 2.407 2.166 3.25 1.043.802 2.347 1.203 3.912 1.203 1.444 0 2.808-.381 4.092-1.143 1.324-.803 2.447-1.866 3.37-3.19.962-1.324 1.564-2.808 1.805-4.453.2-1.564.08-2.989-.361-4.272-.401-1.324-1.083-2.387-2.046-3.19-.923-.842-2.086-1.284-3.491-1.324-1.564-.04-3.048.341-4.453 1.144-1.364.762-2.527 1.825-3.49 3.189-.923 1.324-1.524 2.808-1.805 4.453zm27.7 0c.401-2.728 1.324-5.175 2.768-7.341 1.485-2.207 3.33-3.932 5.537-5.176 2.206-1.283 4.573-1.925 7.1-1.925 2.207 0 4.012.561 5.416 1.685 1.405 1.123 2.428 2.567 3.069 4.332l.903-5.416h6.379L489.62 143h-6.199l.783-4.634c-1.204 1.605-2.668 2.889-4.393 3.852-1.685.922-3.551 1.384-5.597 1.384-2.527 0-4.673-.662-6.439-1.986-1.765-1.324-3.049-3.069-3.851-5.235-.802-2.207-1.023-4.614-.662-7.222zm6.62 0c-.241 1.565-.141 3.009.3 4.333.442 1.324 1.164 2.407 2.167 3.25 1.043.802 2.347 1.203 3.911 1.203 1.445 0 2.809-.381 4.092-1.143 1.324-.803 2.448-1.866 3.37-3.19.963-1.324 1.565-2.808 1.806-4.453.2-1.564.08-2.989-.361-4.272-.402-1.324-1.084-2.387-2.046-3.19-.923-.842-2.087-1.284-3.491-1.324-1.564-.04-3.049.341-4.453 1.144-1.364.762-2.527 1.825-3.49 3.189-.923 1.324-1.525 2.808-1.805 4.453z" fill="#E3E3E3"/></svg>