<svg width="495" height="166" viewBox="0 0 495 166" fill="none" xmlns="http://www.w3.org/2000/svg">
<path d="M19.3788 77.239H12.7593L19.8602 36.3185H26.239L25.5169 40.7716C26.6803 39.207 28.0844 37.9633 29.7293 37.0406C31.4142 36.0778 33.2797 35.5964 35.3257 35.5964C37.8933 35.5964 40.0396 36.2583 41.7647 37.5822C43.5299 38.9061 44.7936 40.6713 45.5559 42.8778C46.3582 45.0843 46.5789 47.5114 46.2178 50.1592C45.8568 52.9274 44.934 55.4147 43.4497 57.6212C41.9653 59.8277 40.1199 61.5729 37.9134 62.8566C35.747 64.1003 33.38 64.7221 30.8125 64.7221C28.606 64.7221 26.8207 64.1805 25.4567 63.0973C24.0927 61.974 23.0897 60.5498 22.4478 58.8248L19.3788 77.239ZM39.5983 50.1592C39.839 48.5946 39.7387 47.1504 39.2974 45.8265C38.8963 44.5026 38.1741 43.4595 37.1311 42.6973C36.088 41.8949 34.7842 41.4937 33.2195 41.4937C31.8154 41.4937 30.4514 41.8748 29.1275 42.6371C27.8036 43.3993 26.6602 44.4424 25.6974 45.7663C24.7747 47.0501 24.193 48.5144 23.9523 50.1592C23.7517 51.6837 23.852 53.1079 24.2531 54.4318C24.6944 55.7156 25.3965 56.7587 26.3593 57.561C27.3222 58.3634 28.4856 58.7846 29.8496 58.8248C31.4142 58.8649 32.8785 58.5038 34.2426 57.7416C35.6467 56.9793 36.8302 55.9363 37.793 54.6124C38.7559 53.2885 39.3576 51.8041 39.5983 50.1592ZM58.1517 21.8759H66.2155L59.7163 51.2424H54.6614L58.1517 21.8759ZM51.2313 61.0513C51.2313 59.8879 51.6325 58.9251 52.4349 58.1628C53.2774 57.4006 54.3004 57.0194 55.5039 57.0194C56.7075 57.0194 57.7104 57.4006 58.5128 58.1628C59.3151 58.9251 59.7163 59.8879 59.7163 61.0513C59.7163 62.1746 59.3151 63.1375 58.5128 63.9398C57.7104 64.7422 56.7075 65.1434 55.5039 65.1434C54.3004 65.1434 53.2774 64.7422 52.4349 63.9398C51.6325 63.1375 51.2313 62.1746 51.2313 61.0513Z" fill="#E3E3E3"/>
<circle cx="39" cy="48" r="36" stroke="#E3E3E3" stroke-width="6"/>
<path d="M84.3788 86.239H77.7593L84.8602 45.3185H91.239L90.5169 49.7716C91.6803 48.207 93.0844 46.9633 94.7293 46.0406C96.4142 45.0778 98.2797 44.5964 100.326 44.5964C102.893 44.5964 105.04 45.2583 106.765 46.5822C108.53 47.9061 109.794 49.6713 110.556 51.8778C111.358 54.0843 111.579 56.5114 111.218 59.1592C110.857 61.9274 109.934 64.4147 108.45 66.6212C106.965 68.8277 105.12 70.5729 102.913 71.8566C100.747 73.1003 98.38 73.7221 95.8125 73.7221C93.606 73.7221 91.8207 73.1805 90.4567 72.0973C89.0927 70.974 88.0897 69.5498 87.4478 67.8248L84.3788 86.239ZM104.598 59.1592C104.839 57.5946 104.739 56.1504 104.297 54.8265C103.896 53.5026 103.174 52.4595 102.131 51.6973C101.088 50.8949 99.7842 50.4937 98.2195 50.4937C96.8154 50.4937 95.4514 50.8748 94.1275 51.6371C92.8036 52.3993 91.6602 53.4424 90.6974 54.7663C89.7747 56.0501 89.193 57.5144 88.9523 59.1592C88.7517 60.6837 88.852 62.1079 89.2531 63.4318C89.6944 64.7156 90.3965 65.7587 91.3593 66.561C92.3222 67.3634 93.4856 67.7846 94.8496 67.8248C96.4142 67.8649 97.8785 67.5038 99.2426 66.7416C100.647 65.9793 101.83 64.9363 102.793 63.6124C103.756 62.2885 104.358 60.8041 104.598 59.1592ZM117.856 63.9734C119.02 65.2973 120.243 66.4006 121.527 67.2832C122.811 68.1658 124.235 68.587 125.8 68.5469C126.963 68.5469 127.886 68.2259 128.568 67.5841C129.29 66.9422 129.651 66.1799 129.651 65.2973C129.691 64.0938 129.149 63.151 128.026 62.469C126.903 61.7469 125.679 61.125 124.355 60.6035C123.232 60.1622 122.129 59.6206 121.046 58.9787C120.002 58.3368 119.14 57.5144 118.458 56.5114C117.816 55.4684 117.515 54.1645 117.555 52.5999C117.635 50.8347 118.137 49.3704 119.06 48.207C119.982 47.0436 121.166 46.181 122.61 45.6194C124.094 45.0176 125.659 44.7167 127.304 44.7167C129.551 44.7167 131.516 45.1781 133.201 46.1008C134.926 47.0235 136.351 48.1869 137.474 49.5911L133.863 53.3822C133.021 52.3392 132.018 51.4566 130.854 50.7344C129.731 50.0123 128.528 49.6512 127.244 49.6512C126.161 49.6512 125.278 49.8919 124.596 50.3734C123.954 50.8548 123.633 51.4967 123.633 52.299C123.593 53.3822 124.074 54.2247 125.077 54.8265C126.12 55.3881 127.324 55.9498 128.688 56.5114C130.052 57.0731 131.296 57.715 132.419 58.4371C133.542 59.1191 134.425 59.9817 135.067 61.0247C135.749 62.0277 136.07 63.3315 136.03 64.9363C135.949 67.5038 134.967 69.6301 133.081 71.315C131.236 73 128.828 73.8425 125.86 73.8425C123.051 73.8425 120.624 73.2206 118.578 71.977C116.532 70.6932 114.928 69.269 113.764 67.7044L117.856 63.9734ZM144.402 66.4407L150.721 68.3664L141.393 83.2301L136.639 81.9062L144.402 66.4407Z" fill="#E3E3E3"/>
<path d="M22.6266 126.15C22.8272 124.506 22.6868 123.081 22.2054 121.878C21.724 120.674 20.6007 120.052 18.8355 120.012C16.99 119.932 15.4455 120.514 14.2018 121.757C12.9582 123.001 12.1357 124.385 11.7346 125.91L8.78587 143H2.28673L10.3505 96.0618H16.8496L12.8779 119.17C13.8809 117.806 15.0844 116.703 16.4886 115.86C17.9328 115.018 19.5777 114.596 21.4231 114.596C23.5092 114.596 25.1541 115.078 26.3576 116.041C27.6013 116.963 28.4438 118.227 28.8851 119.832C29.3264 121.436 29.4066 123.242 29.1258 125.248L26.0567 143H19.6178L22.6266 126.15ZM34.2643 129.159C34.6655 126.431 35.5882 123.984 37.0325 121.818C38.5169 119.611 40.3623 117.886 42.5688 116.642C44.7753 115.359 47.1423 114.717 49.6697 114.717C51.8762 114.717 53.6815 115.278 55.0857 116.402C56.4898 117.525 57.5128 118.969 58.1547 120.734L59.0574 115.318H65.4361L60.622 143H54.4237L55.206 138.366C54.0025 139.971 52.5382 141.255 50.8131 142.218C49.1281 143.14 47.2626 143.602 45.2166 143.602C42.6892 143.602 40.5428 142.94 38.7776 141.616C37.0124 140.292 35.7287 138.547 34.9263 136.381C34.1239 134.174 33.9033 131.767 34.2643 129.159ZM40.8838 129.159C40.6431 130.724 40.7434 132.168 41.1847 133.492C41.626 134.816 42.3482 135.899 43.3511 136.742C44.3942 137.544 45.698 137.945 47.2626 137.945C48.7069 137.945 50.0709 137.564 51.3547 136.802C52.6786 135.999 53.8019 134.936 54.7246 133.612C55.6874 132.288 56.2892 130.804 56.5299 129.159C56.7305 127.595 56.6102 126.17 56.1689 124.887C55.7677 123.563 55.0857 122.5 54.1228 121.697C53.2001 120.855 52.0367 120.413 50.6325 120.373C49.0679 120.333 47.5836 120.714 46.1794 121.517C44.8154 122.279 43.652 123.342 42.6892 124.706C41.7664 126.03 41.1647 127.514 40.8838 129.159ZM76.2869 96.0618H82.786L74.6621 143H68.3435L76.2869 96.0618ZM82.9233 129.159C83.3244 126.431 84.2472 123.984 85.6914 121.818C87.1758 119.611 89.0212 117.886 91.2277 116.642C93.4342 115.359 95.8012 114.717 98.3286 114.717C100.535 114.717 102.34 115.278 103.745 116.402C105.149 117.525 106.172 118.969 106.814 120.734L107.716 115.318H114.095L109.281 143H103.083L103.865 138.366C102.661 139.971 101.197 141.255 99.472 142.218C97.787 143.14 95.9215 143.602 93.8755 143.602C91.3481 143.602 89.2018 142.94 87.4366 141.616C85.6714 140.292 84.3876 138.547 83.5852 136.381C82.7829 134.174 82.5622 131.767 82.9233 129.159ZM89.5428 129.159C89.3021 130.724 89.4023 132.168 89.8436 133.492C90.2849 134.816 91.0071 135.899 92.01 136.742C93.0531 137.544 94.3569 137.945 95.9215 137.945C97.3658 137.945 98.7298 137.564 100.014 136.802C101.337 135.999 102.461 134.936 103.384 133.612C104.346 132.288 104.948 130.804 105.189 129.159C105.389 127.595 105.269 126.17 104.828 124.887C104.427 123.563 103.745 122.5 102.782 121.697C101.859 120.855 100.696 120.413 99.2915 120.373C97.7269 120.333 96.2425 120.714 94.8384 121.517C93.4743 122.279 92.3109 123.342 91.3481 124.706C90.4254 126.03 89.8236 127.514 89.5428 129.159ZM158.464 125.428L155.516 143H149.017L152.026 126.15C152.146 125.067 152.146 124.064 152.026 123.142C151.945 122.179 151.644 121.416 151.123 120.855C150.641 120.293 149.859 120.012 148.776 120.012C147.051 120.012 145.587 120.574 144.383 121.697C143.22 122.821 142.518 124.265 142.277 126.03L139.328 143H132.889L135.838 126.15C135.958 125.067 135.978 124.064 135.898 123.142C135.818 122.179 135.517 121.416 134.995 120.855C134.514 120.293 133.732 120.012 132.648 120.012C130.963 120.012 129.519 120.554 128.316 121.637C127.152 122.72 126.45 124.144 126.209 125.91L123.261 143H116.882L121.696 115.318H127.955L127.353 119.17C128.276 117.766 129.399 116.682 130.723 115.92C132.087 115.118 133.631 114.717 135.356 114.717C137.402 114.717 138.967 115.198 140.05 116.161C141.174 117.124 141.916 118.367 142.277 119.892C143.36 118.327 144.684 117.084 146.249 116.161C147.813 115.198 149.578 114.717 151.544 114.717C153.59 114.717 155.155 115.218 156.238 116.221C157.321 117.184 158.023 118.488 158.344 120.133C158.665 121.737 158.705 123.503 158.464 125.428ZM163.728 129.159C164.129 126.431 165.052 123.984 166.496 121.818C167.98 119.611 169.826 117.886 172.032 116.642C174.239 115.359 176.606 114.717 179.133 114.717C181.339 114.717 183.145 115.278 184.549 116.402C185.953 117.525 186.976 118.969 187.618 120.734L188.521 115.318H194.899L190.085 143H183.887L184.669 138.366C183.466 139.971 182.001 141.255 180.276 142.218C178.591 143.14 176.726 143.602 174.68 143.602C172.152 143.602 170.006 142.94 168.241 141.616C166.476 140.292 165.192 138.547 164.39 136.381C163.587 134.174 163.367 131.767 163.728 129.159ZM170.347 129.159C170.106 130.724 170.207 132.168 170.648 133.492C171.089 134.816 171.811 135.899 172.814 136.742C173.857 137.544 175.161 137.945 176.726 137.945C178.17 137.945 179.534 137.564 180.818 136.802C182.142 135.999 183.265 134.936 184.188 133.612C185.151 132.288 185.752 130.804 185.993 129.159C186.194 127.595 186.073 126.17 185.632 124.887C185.231 123.563 184.549 122.5 183.586 121.697C182.663 120.855 181.5 120.413 180.096 120.373C178.531 120.333 177.047 120.714 175.643 121.517C174.279 122.279 173.115 123.342 172.152 124.706C171.23 126.03 170.628 127.514 170.347 129.159ZM218.026 126.15C218.227 124.506 218.086 123.081 217.605 121.878C217.124 120.634 215.98 120.012 214.175 120.012C212.37 120.012 210.805 120.574 209.481 121.697C208.197 122.821 207.415 124.245 207.134 125.97L204.186 143H197.686L202.501 115.318H208.94L208.278 119.411C209.281 117.966 210.484 116.823 211.888 115.98C213.332 115.138 214.977 114.717 216.823 114.717C218.949 114.717 220.634 115.198 221.878 116.161C223.121 117.124 223.964 118.428 224.405 120.072C224.846 121.677 224.927 123.462 224.646 125.428L221.637 143H215.017L218.026 126.15ZM248.664 115.318H253.057L254.682 105.69H261.121L259.436 115.318H264.009L262.986 121.035H258.473L254.622 143H248.363L252.094 121.035H247.641L248.664 115.318ZM269.649 104.306C269.649 103.183 270.05 102.26 270.852 101.538C271.655 100.776 272.618 100.395 273.741 100.395C274.904 100.395 275.867 100.776 276.63 101.538C277.432 102.26 277.833 103.183 277.833 104.306C277.833 105.429 277.432 106.372 276.63 107.134C275.867 107.857 274.904 108.218 273.741 108.218C272.618 108.218 271.655 107.857 270.852 107.134C270.05 106.372 269.649 105.429 269.649 104.306ZM268.626 115.318H275.065L270.371 143H263.992L268.626 115.318ZM279.146 129.159C279.547 126.431 280.47 123.984 281.914 121.818C283.398 119.611 285.244 117.866 287.45 116.582C289.657 115.298 292.024 114.677 294.551 114.717C296.677 114.717 298.422 115.258 299.786 116.341C301.191 117.385 302.234 118.749 302.916 120.434L307.068 96.0618H313.567L305.503 143H299.064L299.786 138.727C298.583 140.212 297.159 141.395 295.514 142.278C293.869 143.16 292.064 143.602 290.098 143.602C287.57 143.602 285.424 142.94 283.659 141.616C281.894 140.292 280.61 138.547 279.808 136.381C279.005 134.174 278.785 131.767 279.146 129.159ZM285.765 129.159C285.524 130.724 285.625 132.168 286.066 133.492C286.507 134.816 287.229 135.899 288.232 136.742C289.275 137.544 290.579 137.945 292.144 137.945C293.588 137.945 294.952 137.564 296.236 136.802C297.56 135.999 298.683 134.936 299.606 133.612C300.569 132.288 301.171 130.804 301.411 129.159C301.612 127.595 301.491 126.17 301.05 124.887C300.649 123.563 299.967 122.5 299.004 121.697C298.081 120.855 296.918 120.413 295.514 120.373C293.949 120.333 292.465 120.714 291.061 121.517C289.697 122.279 288.533 123.342 287.57 124.706C286.648 126.03 286.046 127.514 285.765 129.159ZM313.465 129.159C313.867 126.431 314.789 123.984 316.234 121.818C317.718 119.611 319.563 117.886 321.77 116.642C323.976 115.359 326.343 114.717 328.871 114.717C331.077 114.717 332.883 115.278 334.287 116.402C335.691 117.525 336.714 118.969 337.356 120.734L338.259 115.318H344.637L339.823 143H333.625L334.407 138.366C333.204 139.971 331.739 141.255 330.014 142.218C328.329 143.14 326.464 143.602 324.418 143.602C321.89 143.602 319.744 142.94 317.979 141.616C316.214 140.292 314.93 138.547 314.127 136.381C313.325 134.174 313.104 131.767 313.465 129.159ZM320.085 129.159C319.844 130.724 319.945 132.168 320.386 133.492C320.827 134.816 321.549 135.899 322.552 136.742C323.595 137.544 324.899 137.945 326.464 137.945C327.908 137.945 329.272 137.564 330.556 136.802C331.88 135.999 333.003 134.936 333.926 133.612C334.889 132.288 335.49 130.804 335.731 129.159C335.932 127.595 335.811 126.17 335.37 124.887C334.969 123.563 334.287 122.5 333.324 121.697C332.401 120.855 331.238 120.413 329.834 120.373C328.269 120.333 326.785 120.714 325.381 121.517C324.017 122.279 322.853 123.342 321.89 124.706C320.968 126.03 320.366 127.514 320.085 129.159ZM367.885 115.318H376.069L362.107 127.113L372.157 143H364.695L355.969 128.919L353.562 143H347.304L355.247 96.0618H361.626L356.692 124.766L367.885 115.318ZM394.622 129.159C395.024 126.431 395.946 123.984 397.391 121.818C398.875 119.611 400.72 117.886 402.927 116.642C405.133 115.359 407.5 114.717 410.028 114.717C412.234 114.717 414.04 115.278 415.444 116.402C416.848 117.525 417.871 118.969 418.513 120.734L419.415 115.318H425.794L420.98 143H414.782L415.564 138.366C414.361 139.971 412.896 141.255 411.171 142.218C409.486 143.14 407.621 143.602 405.575 143.602C403.047 143.602 400.901 142.94 399.136 141.616C397.371 140.292 396.087 138.547 395.284 136.381C394.482 134.174 394.261 131.767 394.622 129.159ZM401.242 129.159C401.001 130.724 401.102 132.168 401.543 133.492C401.984 134.816 402.706 135.899 403.709 136.742C404.752 137.544 406.056 137.945 407.621 137.945C409.065 137.945 410.429 137.564 411.713 136.802C413.037 135.999 414.16 134.936 415.083 133.612C416.046 132.288 416.647 130.804 416.888 129.159C417.089 127.595 416.968 126.17 416.527 124.887C416.126 123.563 415.444 122.5 414.481 121.697C413.558 120.855 412.395 120.413 410.991 120.373C409.426 120.333 407.942 120.714 406.538 121.517C405.174 122.279 404.01 123.342 403.047 124.706C402.125 126.03 401.523 127.514 401.242 129.159ZM428.942 129.159C429.343 126.431 430.266 123.984 431.71 121.818C433.195 119.611 435.04 117.866 437.247 116.582C439.453 115.298 441.82 114.677 444.348 114.717C446.474 114.717 448.219 115.258 449.583 116.341C450.987 117.385 452.03 118.749 452.712 120.434L456.865 96.0618H463.364L455.3 143H448.861L449.583 138.727C448.38 140.212 446.955 141.395 445.31 142.278C443.666 143.16 441.86 143.602 439.895 143.602C437.367 143.602 435.221 142.94 433.456 141.616C431.69 140.292 430.407 138.547 429.604 136.381C428.802 134.174 428.581 131.767 428.942 129.159ZM435.562 129.159C435.321 130.724 435.421 132.168 435.863 133.492C436.304 134.816 437.026 135.899 438.029 136.742C439.072 137.544 440.376 137.945 441.941 137.945C443.385 137.945 444.749 137.564 446.033 136.802C447.357 135.999 448.48 134.936 449.403 133.612C450.365 132.288 450.967 130.804 451.208 129.159C451.408 127.595 451.288 126.17 450.847 124.887C450.446 123.563 449.764 122.5 448.801 121.697C447.878 120.855 446.715 120.413 445.31 120.373C443.746 120.333 442.262 120.714 440.857 121.517C439.493 122.279 438.33 123.342 437.367 124.706C436.444 126.03 435.843 127.514 435.562 129.159ZM463.262 129.159C463.663 126.431 464.586 123.984 466.03 121.818C467.515 119.611 469.36 117.886 471.567 116.642C473.773 115.359 476.14 114.717 478.667 114.717C480.874 114.717 482.679 115.278 484.083 116.402C485.488 117.525 486.511 118.969 487.152 120.734L488.055 115.318H494.434L489.62 143H483.421L484.204 138.366C483 139.971 481.536 141.255 479.811 142.218C478.126 143.14 476.26 143.602 474.214 143.602C471.687 143.602 469.541 142.94 467.775 141.616C466.01 140.292 464.726 138.547 463.924 136.381C463.122 134.174 462.901 131.767 463.262 129.159ZM469.882 129.159C469.641 130.724 469.741 132.168 470.182 133.492C470.624 134.816 471.346 135.899 472.349 136.742C473.392 137.544 474.696 137.945 476.26 137.945C477.705 137.945 479.069 137.564 480.352 136.802C481.676 135.999 482.8 134.936 483.722 133.612C484.685 132.288 485.287 130.804 485.528 129.159C485.728 127.595 485.608 126.17 485.167 124.887C484.765 123.563 484.083 122.5 483.121 121.697C482.198 120.855 481.034 120.413 479.63 120.373C478.066 120.333 476.581 120.714 475.177 121.517C473.813 122.279 472.65 123.342 471.687 124.706C470.764 126.03 470.162 127.514 469.882 129.159Z" fill="#E3E3E3"/>
</svg>
